%TF.GenerationSoftware,KiCad,Pcbnew,10.0.1*%
%TF.CreationDate,2026-05-07T15:33:41+05:30*%
%TF.ProjectId,weather station rev 1.2,77656174-6865-4722-9073-746174696f6e,rev?*%
%TF.SameCoordinates,Original*%
%TF.FileFunction,Soldermask,Top*%
%TF.FilePolarity,Negative*%
%FSLAX46Y46*%
G04 Gerber Fmt 4.6, Leading zero omitted, Abs format (unit mm)*
G04 Created by KiCad (PCBNEW 10.0.1) date 2026-05-07 15:33:41*
%MOMM*%
%LPD*%
G01*
G04 APERTURE LIST*
G04 Aperture macros list*
%AMRoundRect*
0 Rectangle with rounded corners*
0 $1 Rounding radius*
0 $2 $3 $4 $5 $6 $7 $8 $9 X,Y pos of 4 corners*
0 Add a 4 corners polygon primitive as box body*
4,1,4,$2,$3,$4,$5,$6,$7,$8,$9,$2,$3,0*
0 Add four circle primitives for the rounded corners*
1,1,$1+$1,$2,$3*
1,1,$1+$1,$4,$5*
1,1,$1+$1,$6,$7*
1,1,$1+$1,$8,$9*
0 Add four rect primitives between the rounded corners*
20,1,$1+$1,$2,$3,$4,$5,0*
20,1,$1+$1,$4,$5,$6,$7,0*
20,1,$1+$1,$6,$7,$8,$9,0*
20,1,$1+$1,$8,$9,$2,$3,0*%
%AMFreePoly0*
4,1,6,1.000000,0.000000,0.500000,-0.750000,-0.500000,-0.750000,-0.500000,0.750000,0.500000,0.750000,1.000000,0.000000,1.000000,0.000000,$1*%
%AMFreePoly1*
4,1,6,0.500000,-0.750000,-0.650000,-0.750000,-0.150000,0.000000,-0.650000,0.750000,0.500000,0.750000,0.500000,-0.750000,0.500000,-0.750000,$1*%
G04 Aperture macros list end*
%ADD10C,1.600000*%
%ADD11R,1.905000X2.000000*%
%ADD12O,1.905000X2.000000*%
%ADD13R,1.700000X1.700000*%
%ADD14C,1.700000*%
%ADD15FreePoly0,0.000000*%
%ADD16FreePoly1,0.000000*%
%ADD17RoundRect,0.375000X0.375000X-0.625000X0.375000X0.625000X-0.375000X0.625000X-0.375000X-0.625000X0*%
%ADD18RoundRect,0.500000X1.400000X-0.500000X1.400000X0.500000X-1.400000X0.500000X-1.400000X-0.500000X0*%
%ADD19R,1.500000X0.900000*%
%ADD20R,0.900000X1.500000*%
%ADD21C,0.600000*%
%ADD22R,3.800000X3.800000*%
G04 APERTURE END LIST*
%TO.C,J8*%
G36*
X134650000Y-89850000D02*
G01*
X137100000Y-89850000D01*
X137100000Y-91350000D01*
X134650000Y-91350000D01*
X134650000Y-89850000D01*
G37*
%TO.C,J7*%
G36*
X126050000Y-89850000D02*
G01*
X128500000Y-89850000D01*
X128500000Y-91350000D01*
X126050000Y-91350000D01*
X126050000Y-89850000D01*
G37*
%TD*%
D10*
%TO.C,R2*%
X126980000Y-99400000D03*
X134600000Y-99400000D03*
%TD*%
%TO.C,R1*%
X137990000Y-99400000D03*
X145610000Y-99400000D03*
%TD*%
D11*
%TO.C,Q1*%
X129260000Y-86150000D03*
D12*
X131800000Y-86150000D03*
X134340000Y-86150000D03*
%TD*%
D13*
%TO.C,J9*%
X127920000Y-95200000D03*
D14*
X130460000Y-95200000D03*
X133000000Y-95200000D03*
%TD*%
D15*
%TO.C,J8*%
X135150000Y-90600000D03*
D16*
X136600000Y-90600000D03*
%TD*%
D15*
%TO.C,J7*%
X126550000Y-90600000D03*
D16*
X128000000Y-90600000D03*
%TD*%
D13*
%TO.C,J6*%
X150400000Y-121800000D03*
D14*
X150400000Y-119260000D03*
X150400000Y-116720000D03*
%TD*%
D13*
%TO.C,J5*%
X122600000Y-93420000D03*
D14*
X122600000Y-90880000D03*
X122600000Y-88340000D03*
X122600000Y-85800000D03*
%TD*%
D13*
%TO.C,J4*%
X150400000Y-98540000D03*
D14*
X150400000Y-96000000D03*
X150400000Y-93460000D03*
X150400000Y-90920000D03*
%TD*%
D13*
%TO.C,J3*%
X122200000Y-111400000D03*
D14*
X122200000Y-113940000D03*
X122200000Y-116480000D03*
X122200000Y-119020000D03*
X122200000Y-121560000D03*
%TD*%
D13*
%TO.C,J2*%
X150400000Y-111810000D03*
D14*
X150400000Y-109270000D03*
X150400000Y-106730000D03*
X150400000Y-104190000D03*
%TD*%
D13*
%TO.C,J1*%
X122400000Y-99920000D03*
D14*
X122400000Y-102460000D03*
X122400000Y-105000000D03*
%TD*%
D17*
%TO.C,U2*%
X140500000Y-90900000D03*
X142800000Y-90900000D03*
D18*
X142800000Y-84600000D03*
D17*
X145100000Y-90900000D03*
%TD*%
D19*
%TO.C,U1*%
X145000000Y-123770000D03*
X145000000Y-122500000D03*
X145000000Y-121230000D03*
X145000000Y-119960000D03*
X145000000Y-118690000D03*
X145000000Y-117420000D03*
X145000000Y-116150000D03*
X145000000Y-114880000D03*
X145000000Y-113610000D03*
X145000000Y-112340000D03*
X145000000Y-111070000D03*
X145000000Y-109800000D03*
X145000000Y-108530000D03*
X145000000Y-107260000D03*
D20*
X141960000Y-106010000D03*
X140690000Y-106010000D03*
X139420000Y-106010000D03*
X138150000Y-106010000D03*
X136880000Y-106010000D03*
X135610000Y-106010000D03*
X134340000Y-106010000D03*
X133070000Y-106010000D03*
X131800000Y-106010000D03*
X130530000Y-106010000D03*
D19*
X127500000Y-107260000D03*
X127500000Y-108530000D03*
X127500000Y-109800000D03*
X127500000Y-111070000D03*
X127500000Y-112340000D03*
X127500000Y-113610000D03*
X127500000Y-114880000D03*
X127500000Y-116150000D03*
X127500000Y-117420000D03*
X127500000Y-118690000D03*
X127500000Y-119960000D03*
X127500000Y-121230000D03*
X127500000Y-122500000D03*
X127500000Y-123770000D03*
D21*
X139150000Y-116750000D03*
X139150000Y-115350000D03*
X138450000Y-117450000D03*
X138450000Y-116050000D03*
X138450000Y-114650000D03*
X137775000Y-116750000D03*
X137775000Y-115350000D03*
D22*
X137750000Y-116050000D03*
D21*
X137050000Y-117450000D03*
X137050000Y-116050000D03*
X137050000Y-114650000D03*
X136350000Y-116750000D03*
X136350000Y-115350000D03*
%TD*%
M02*
