M48
; DRILL file KiCad 10.0.1 date 2026-05-07T15:33:45
; FORMAT={-:-/ absolute / metric / decimal}
; #@! TF.CreationDate,2026-05-07T15:33:45+05:30
; #@! TF.GenerationSoftware,Kicad,Pcbnew,10.0.1
; #@! TF.FileFunction,Plated,1,2,PTH
FMAT,2
METRIC
; #@! TA.AperFunction,Plated,PTH,ComponentDrill
T1C0.200
; #@! TA.AperFunction,Plated,PTH,ViaDrill
T2C0.300
; #@! TA.AperFunction,Plated,PTH,ViaDrill
T3C0.500
; #@! TA.AperFunction,Plated,PTH,ComponentDrill
T4C0.800
; #@! TA.AperFunction,Plated,PTH,ComponentDrill
T5C1.000
; #@! TA.AperFunction,Plated,PTH,ComponentDrill
T6C1.100
%
G90
G05
T1
X136.35Y-115.35
X136.35Y-116.75
X137.05Y-114.65
X137.05Y-116.05
X137.05Y-117.45
X137.775Y-115.35
X137.775Y-116.75
X138.45Y-114.65
X138.45Y-116.05
X138.45Y-117.45
X139.15Y-115.35
X139.15Y-116.75
T2
X124.6Y-117.6
X125.0Y-90.6
X125.859Y-119.29
X138.0Y-90.6
X146.8Y-105.6
X147.6Y-119.4
T3
X140.6Y-93.6
T4
X126.98Y-99.4
X134.6Y-99.4
X137.99Y-99.4
X145.61Y-99.4
T5
X122.2Y-111.4
X122.2Y-113.94
X122.2Y-116.48
X122.2Y-119.02
X122.2Y-121.56
X122.4Y-99.92
X122.4Y-102.46
X122.4Y-105.0
X122.6Y-85.8
X122.6Y-88.34
X122.6Y-90.88
X122.6Y-93.42
X127.92Y-95.2
X130.46Y-95.2
X133.0Y-95.2
X150.4Y-90.92
X150.4Y-93.46
X150.4Y-96.0
X150.4Y-98.54
X150.4Y-104.19
X150.4Y-106.73
X150.4Y-109.27
X150.4Y-111.81
X150.4Y-116.72
X150.4Y-119.26
X150.4Y-121.8
T6
X129.26Y-86.15
X131.8Y-86.15
X134.34Y-86.15
M30
