%TF.GenerationSoftware,KiCad,Pcbnew,10.0.1*%
%TF.CreationDate,2026-05-07T15:33:40+05:30*%
%TF.ProjectId,weather station rev 1.2,77656174-6865-4722-9073-746174696f6e,rev?*%
%TF.SameCoordinates,Original*%
%TF.FileFunction,Legend,Top*%
%TF.FilePolarity,Positive*%
%FSLAX46Y46*%
G04 Gerber Fmt 4.6, Leading zero omitted, Abs format (unit mm)*
G04 Created by KiCad (PCBNEW 10.0.1) date 2026-05-07 15:33:40*
%MOMM*%
%LPD*%
G01*
G04 APERTURE LIST*
%ADD10C,0.150000*%
%ADD11C,0.100000*%
%ADD12C,0.120000*%
G04 APERTURE END LIST*
D10*
X130623333Y-99854819D02*
X130290000Y-99378628D01*
X130051905Y-99854819D02*
X130051905Y-98854819D01*
X130051905Y-98854819D02*
X130432857Y-98854819D01*
X130432857Y-98854819D02*
X130528095Y-98902438D01*
X130528095Y-98902438D02*
X130575714Y-98950057D01*
X130575714Y-98950057D02*
X130623333Y-99045295D01*
X130623333Y-99045295D02*
X130623333Y-99188152D01*
X130623333Y-99188152D02*
X130575714Y-99283390D01*
X130575714Y-99283390D02*
X130528095Y-99331009D01*
X130528095Y-99331009D02*
X130432857Y-99378628D01*
X130432857Y-99378628D02*
X130051905Y-99378628D01*
X131004286Y-98950057D02*
X131051905Y-98902438D01*
X131051905Y-98902438D02*
X131147143Y-98854819D01*
X131147143Y-98854819D02*
X131385238Y-98854819D01*
X131385238Y-98854819D02*
X131480476Y-98902438D01*
X131480476Y-98902438D02*
X131528095Y-98950057D01*
X131528095Y-98950057D02*
X131575714Y-99045295D01*
X131575714Y-99045295D02*
X131575714Y-99140533D01*
X131575714Y-99140533D02*
X131528095Y-99283390D01*
X131528095Y-99283390D02*
X130956667Y-99854819D01*
X130956667Y-99854819D02*
X131575714Y-99854819D01*
X130194761Y-102224819D02*
X129623333Y-102224819D01*
X129909047Y-102224819D02*
X129909047Y-101224819D01*
X129909047Y-101224819D02*
X129813809Y-101367676D01*
X129813809Y-101367676D02*
X129718571Y-101462914D01*
X129718571Y-101462914D02*
X129623333Y-101510533D01*
X130813809Y-101224819D02*
X130909047Y-101224819D01*
X130909047Y-101224819D02*
X131004285Y-101272438D01*
X131004285Y-101272438D02*
X131051904Y-101320057D01*
X131051904Y-101320057D02*
X131099523Y-101415295D01*
X131099523Y-101415295D02*
X131147142Y-101605771D01*
X131147142Y-101605771D02*
X131147142Y-101843866D01*
X131147142Y-101843866D02*
X131099523Y-102034342D01*
X131099523Y-102034342D02*
X131051904Y-102129580D01*
X131051904Y-102129580D02*
X131004285Y-102177200D01*
X131004285Y-102177200D02*
X130909047Y-102224819D01*
X130909047Y-102224819D02*
X130813809Y-102224819D01*
X130813809Y-102224819D02*
X130718571Y-102177200D01*
X130718571Y-102177200D02*
X130670952Y-102129580D01*
X130670952Y-102129580D02*
X130623333Y-102034342D01*
X130623333Y-102034342D02*
X130575714Y-101843866D01*
X130575714Y-101843866D02*
X130575714Y-101605771D01*
X130575714Y-101605771D02*
X130623333Y-101415295D01*
X130623333Y-101415295D02*
X130670952Y-101320057D01*
X130670952Y-101320057D02*
X130718571Y-101272438D01*
X130718571Y-101272438D02*
X130813809Y-101224819D01*
X131575714Y-102224819D02*
X131575714Y-101224819D01*
X131670952Y-101843866D02*
X131956666Y-102224819D01*
X131956666Y-101558152D02*
X131575714Y-101939104D01*
X141633333Y-99854819D02*
X141300000Y-99378628D01*
X141061905Y-99854819D02*
X141061905Y-98854819D01*
X141061905Y-98854819D02*
X141442857Y-98854819D01*
X141442857Y-98854819D02*
X141538095Y-98902438D01*
X141538095Y-98902438D02*
X141585714Y-98950057D01*
X141585714Y-98950057D02*
X141633333Y-99045295D01*
X141633333Y-99045295D02*
X141633333Y-99188152D01*
X141633333Y-99188152D02*
X141585714Y-99283390D01*
X141585714Y-99283390D02*
X141538095Y-99331009D01*
X141538095Y-99331009D02*
X141442857Y-99378628D01*
X141442857Y-99378628D02*
X141061905Y-99378628D01*
X142585714Y-99854819D02*
X142014286Y-99854819D01*
X142300000Y-99854819D02*
X142300000Y-98854819D01*
X142300000Y-98854819D02*
X142204762Y-98997676D01*
X142204762Y-98997676D02*
X142109524Y-99092914D01*
X142109524Y-99092914D02*
X142014286Y-99140533D01*
X141204761Y-102224819D02*
X140633333Y-102224819D01*
X140919047Y-102224819D02*
X140919047Y-101224819D01*
X140919047Y-101224819D02*
X140823809Y-101367676D01*
X140823809Y-101367676D02*
X140728571Y-101462914D01*
X140728571Y-101462914D02*
X140633333Y-101510533D01*
X141823809Y-101224819D02*
X141919047Y-101224819D01*
X141919047Y-101224819D02*
X142014285Y-101272438D01*
X142014285Y-101272438D02*
X142061904Y-101320057D01*
X142061904Y-101320057D02*
X142109523Y-101415295D01*
X142109523Y-101415295D02*
X142157142Y-101605771D01*
X142157142Y-101605771D02*
X142157142Y-101843866D01*
X142157142Y-101843866D02*
X142109523Y-102034342D01*
X142109523Y-102034342D02*
X142061904Y-102129580D01*
X142061904Y-102129580D02*
X142014285Y-102177200D01*
X142014285Y-102177200D02*
X141919047Y-102224819D01*
X141919047Y-102224819D02*
X141823809Y-102224819D01*
X141823809Y-102224819D02*
X141728571Y-102177200D01*
X141728571Y-102177200D02*
X141680952Y-102129580D01*
X141680952Y-102129580D02*
X141633333Y-102034342D01*
X141633333Y-102034342D02*
X141585714Y-101843866D01*
X141585714Y-101843866D02*
X141585714Y-101605771D01*
X141585714Y-101605771D02*
X141633333Y-101415295D01*
X141633333Y-101415295D02*
X141680952Y-101320057D01*
X141680952Y-101320057D02*
X141728571Y-101272438D01*
X141728571Y-101272438D02*
X141823809Y-101224819D01*
X142585714Y-102224819D02*
X142585714Y-101224819D01*
X142680952Y-101843866D02*
X142966666Y-102224819D01*
X142966666Y-101558152D02*
X142585714Y-101939104D01*
X125504761Y-86150057D02*
X125409523Y-86102438D01*
X125409523Y-86102438D02*
X125314285Y-86007200D01*
X125314285Y-86007200D02*
X125171428Y-85864342D01*
X125171428Y-85864342D02*
X125076190Y-85816723D01*
X125076190Y-85816723D02*
X124980952Y-85816723D01*
X125028571Y-86054819D02*
X124933333Y-86007200D01*
X124933333Y-86007200D02*
X124838095Y-85911961D01*
X124838095Y-85911961D02*
X124790476Y-85721485D01*
X124790476Y-85721485D02*
X124790476Y-85388152D01*
X124790476Y-85388152D02*
X124838095Y-85197676D01*
X124838095Y-85197676D02*
X124933333Y-85102438D01*
X124933333Y-85102438D02*
X125028571Y-85054819D01*
X125028571Y-85054819D02*
X125219047Y-85054819D01*
X125219047Y-85054819D02*
X125314285Y-85102438D01*
X125314285Y-85102438D02*
X125409523Y-85197676D01*
X125409523Y-85197676D02*
X125457142Y-85388152D01*
X125457142Y-85388152D02*
X125457142Y-85721485D01*
X125457142Y-85721485D02*
X125409523Y-85911961D01*
X125409523Y-85911961D02*
X125314285Y-86007200D01*
X125314285Y-86007200D02*
X125219047Y-86054819D01*
X125219047Y-86054819D02*
X125028571Y-86054819D01*
X126409523Y-86054819D02*
X125838095Y-86054819D01*
X126123809Y-86054819D02*
X126123809Y-85054819D01*
X126123809Y-85054819D02*
X126028571Y-85197676D01*
X126028571Y-85197676D02*
X125933333Y-85292914D01*
X125933333Y-85292914D02*
X125838095Y-85340533D01*
X128942857Y-88804819D02*
X128942857Y-87804819D01*
X129990475Y-88804819D02*
X129657142Y-88328628D01*
X129419047Y-88804819D02*
X129419047Y-87804819D01*
X129419047Y-87804819D02*
X129799999Y-87804819D01*
X129799999Y-87804819D02*
X129895237Y-87852438D01*
X129895237Y-87852438D02*
X129942856Y-87900057D01*
X129942856Y-87900057D02*
X129990475Y-87995295D01*
X129990475Y-87995295D02*
X129990475Y-88138152D01*
X129990475Y-88138152D02*
X129942856Y-88233390D01*
X129942856Y-88233390D02*
X129895237Y-88281009D01*
X129895237Y-88281009D02*
X129799999Y-88328628D01*
X129799999Y-88328628D02*
X129419047Y-88328628D01*
X130895237Y-88804819D02*
X130419047Y-88804819D01*
X130419047Y-88804819D02*
X130419047Y-87804819D01*
X131133333Y-87804819D02*
X131799999Y-87804819D01*
X131799999Y-87804819D02*
X131133333Y-88804819D01*
X131133333Y-88804819D02*
X131799999Y-88804819D01*
X132609523Y-88138152D02*
X132609523Y-88804819D01*
X132371428Y-87757200D02*
X132133333Y-88471485D01*
X132133333Y-88471485D02*
X132752380Y-88471485D01*
X133561904Y-88138152D02*
X133561904Y-88804819D01*
X133323809Y-87757200D02*
X133085714Y-88471485D01*
X133085714Y-88471485D02*
X133704761Y-88471485D01*
X134085714Y-88804819D02*
X134085714Y-87804819D01*
X134085714Y-87804819D02*
X134657142Y-88804819D01*
X134657142Y-88804819D02*
X134657142Y-87804819D01*
X124994819Y-95533333D02*
X125709104Y-95533333D01*
X125709104Y-95533333D02*
X125851961Y-95580952D01*
X125851961Y-95580952D02*
X125947200Y-95676190D01*
X125947200Y-95676190D02*
X125994819Y-95819047D01*
X125994819Y-95819047D02*
X125994819Y-95914285D01*
X125994819Y-95009523D02*
X125994819Y-94819047D01*
X125994819Y-94819047D02*
X125947200Y-94723809D01*
X125947200Y-94723809D02*
X125899580Y-94676190D01*
X125899580Y-94676190D02*
X125756723Y-94580952D01*
X125756723Y-94580952D02*
X125566247Y-94533333D01*
X125566247Y-94533333D02*
X125185295Y-94533333D01*
X125185295Y-94533333D02*
X125090057Y-94580952D01*
X125090057Y-94580952D02*
X125042438Y-94628571D01*
X125042438Y-94628571D02*
X124994819Y-94723809D01*
X124994819Y-94723809D02*
X124994819Y-94914285D01*
X124994819Y-94914285D02*
X125042438Y-95009523D01*
X125042438Y-95009523D02*
X125090057Y-95057142D01*
X125090057Y-95057142D02*
X125185295Y-95104761D01*
X125185295Y-95104761D02*
X125423390Y-95104761D01*
X125423390Y-95104761D02*
X125518628Y-95057142D01*
X125518628Y-95057142D02*
X125566247Y-95009523D01*
X125566247Y-95009523D02*
X125613866Y-94914285D01*
X125613866Y-94914285D02*
X125613866Y-94723809D01*
X125613866Y-94723809D02*
X125566247Y-94628571D01*
X125566247Y-94628571D02*
X125518628Y-94580952D01*
X125518628Y-94580952D02*
X125423390Y-94533333D01*
X135223809Y-95807200D02*
X135366666Y-95854819D01*
X135366666Y-95854819D02*
X135604761Y-95854819D01*
X135604761Y-95854819D02*
X135699999Y-95807200D01*
X135699999Y-95807200D02*
X135747618Y-95759580D01*
X135747618Y-95759580D02*
X135795237Y-95664342D01*
X135795237Y-95664342D02*
X135795237Y-95569104D01*
X135795237Y-95569104D02*
X135747618Y-95473866D01*
X135747618Y-95473866D02*
X135699999Y-95426247D01*
X135699999Y-95426247D02*
X135604761Y-95378628D01*
X135604761Y-95378628D02*
X135414285Y-95331009D01*
X135414285Y-95331009D02*
X135319047Y-95283390D01*
X135319047Y-95283390D02*
X135271428Y-95235771D01*
X135271428Y-95235771D02*
X135223809Y-95140533D01*
X135223809Y-95140533D02*
X135223809Y-95045295D01*
X135223809Y-95045295D02*
X135271428Y-94950057D01*
X135271428Y-94950057D02*
X135319047Y-94902438D01*
X135319047Y-94902438D02*
X135414285Y-94854819D01*
X135414285Y-94854819D02*
X135652380Y-94854819D01*
X135652380Y-94854819D02*
X135795237Y-94902438D01*
X136604761Y-95807200D02*
X136509523Y-95854819D01*
X136509523Y-95854819D02*
X136319047Y-95854819D01*
X136319047Y-95854819D02*
X136223809Y-95807200D01*
X136223809Y-95807200D02*
X136176190Y-95711961D01*
X136176190Y-95711961D02*
X136176190Y-95331009D01*
X136176190Y-95331009D02*
X136223809Y-95235771D01*
X136223809Y-95235771D02*
X136319047Y-95188152D01*
X136319047Y-95188152D02*
X136509523Y-95188152D01*
X136509523Y-95188152D02*
X136604761Y-95235771D01*
X136604761Y-95235771D02*
X136652380Y-95331009D01*
X136652380Y-95331009D02*
X136652380Y-95426247D01*
X136652380Y-95426247D02*
X136176190Y-95521485D01*
X137080952Y-95854819D02*
X137080952Y-95188152D01*
X137080952Y-95378628D02*
X137128571Y-95283390D01*
X137128571Y-95283390D02*
X137176190Y-95235771D01*
X137176190Y-95235771D02*
X137271428Y-95188152D01*
X137271428Y-95188152D02*
X137366666Y-95188152D01*
X137700000Y-95854819D02*
X137700000Y-95188152D01*
X137700000Y-94854819D02*
X137652381Y-94902438D01*
X137652381Y-94902438D02*
X137700000Y-94950057D01*
X137700000Y-94950057D02*
X137747619Y-94902438D01*
X137747619Y-94902438D02*
X137700000Y-94854819D01*
X137700000Y-94854819D02*
X137700000Y-94950057D01*
X138604761Y-95854819D02*
X138604761Y-95331009D01*
X138604761Y-95331009D02*
X138557142Y-95235771D01*
X138557142Y-95235771D02*
X138461904Y-95188152D01*
X138461904Y-95188152D02*
X138271428Y-95188152D01*
X138271428Y-95188152D02*
X138176190Y-95235771D01*
X138604761Y-95807200D02*
X138509523Y-95854819D01*
X138509523Y-95854819D02*
X138271428Y-95854819D01*
X138271428Y-95854819D02*
X138176190Y-95807200D01*
X138176190Y-95807200D02*
X138128571Y-95711961D01*
X138128571Y-95711961D02*
X138128571Y-95616723D01*
X138128571Y-95616723D02*
X138176190Y-95521485D01*
X138176190Y-95521485D02*
X138271428Y-95473866D01*
X138271428Y-95473866D02*
X138509523Y-95473866D01*
X138509523Y-95473866D02*
X138604761Y-95426247D01*
X139223809Y-95854819D02*
X139128571Y-95807200D01*
X139128571Y-95807200D02*
X139080952Y-95711961D01*
X139080952Y-95711961D02*
X139080952Y-94854819D01*
X135541666Y-88254819D02*
X135541666Y-88969104D01*
X135541666Y-88969104D02*
X135494047Y-89111961D01*
X135494047Y-89111961D02*
X135398809Y-89207200D01*
X135398809Y-89207200D02*
X135255952Y-89254819D01*
X135255952Y-89254819D02*
X135160714Y-89254819D01*
X136160714Y-88683390D02*
X136065476Y-88635771D01*
X136065476Y-88635771D02*
X136017857Y-88588152D01*
X136017857Y-88588152D02*
X135970238Y-88492914D01*
X135970238Y-88492914D02*
X135970238Y-88445295D01*
X135970238Y-88445295D02*
X136017857Y-88350057D01*
X136017857Y-88350057D02*
X136065476Y-88302438D01*
X136065476Y-88302438D02*
X136160714Y-88254819D01*
X136160714Y-88254819D02*
X136351190Y-88254819D01*
X136351190Y-88254819D02*
X136446428Y-88302438D01*
X136446428Y-88302438D02*
X136494047Y-88350057D01*
X136494047Y-88350057D02*
X136541666Y-88445295D01*
X136541666Y-88445295D02*
X136541666Y-88492914D01*
X136541666Y-88492914D02*
X136494047Y-88588152D01*
X136494047Y-88588152D02*
X136446428Y-88635771D01*
X136446428Y-88635771D02*
X136351190Y-88683390D01*
X136351190Y-88683390D02*
X136160714Y-88683390D01*
X136160714Y-88683390D02*
X136065476Y-88731009D01*
X136065476Y-88731009D02*
X136017857Y-88778628D01*
X136017857Y-88778628D02*
X135970238Y-88873866D01*
X135970238Y-88873866D02*
X135970238Y-89064342D01*
X135970238Y-89064342D02*
X136017857Y-89159580D01*
X136017857Y-89159580D02*
X136065476Y-89207200D01*
X136065476Y-89207200D02*
X136160714Y-89254819D01*
X136160714Y-89254819D02*
X136351190Y-89254819D01*
X136351190Y-89254819D02*
X136446428Y-89207200D01*
X136446428Y-89207200D02*
X136494047Y-89159580D01*
X136494047Y-89159580D02*
X136541666Y-89064342D01*
X136541666Y-89064342D02*
X136541666Y-88873866D01*
X136541666Y-88873866D02*
X136494047Y-88778628D01*
X136494047Y-88778628D02*
X136446428Y-88731009D01*
X136446428Y-88731009D02*
X136351190Y-88683390D01*
X132898809Y-92431009D02*
X133232142Y-92431009D01*
X133374999Y-92954819D02*
X132898809Y-92954819D01*
X132898809Y-92954819D02*
X132898809Y-91954819D01*
X132898809Y-91954819D02*
X133374999Y-91954819D01*
X133803571Y-92954819D02*
X133803571Y-91954819D01*
X133803571Y-91954819D02*
X134374999Y-92954819D01*
X134374999Y-92954819D02*
X134374999Y-91954819D01*
X135613095Y-92954819D02*
X135613095Y-92288152D01*
X135613095Y-92478628D02*
X135660714Y-92383390D01*
X135660714Y-92383390D02*
X135708333Y-92335771D01*
X135708333Y-92335771D02*
X135803571Y-92288152D01*
X135803571Y-92288152D02*
X135898809Y-92288152D01*
X136613095Y-92907200D02*
X136517857Y-92954819D01*
X136517857Y-92954819D02*
X136327381Y-92954819D01*
X136327381Y-92954819D02*
X136232143Y-92907200D01*
X136232143Y-92907200D02*
X136184524Y-92811961D01*
X136184524Y-92811961D02*
X136184524Y-92431009D01*
X136184524Y-92431009D02*
X136232143Y-92335771D01*
X136232143Y-92335771D02*
X136327381Y-92288152D01*
X136327381Y-92288152D02*
X136517857Y-92288152D01*
X136517857Y-92288152D02*
X136613095Y-92335771D01*
X136613095Y-92335771D02*
X136660714Y-92431009D01*
X136660714Y-92431009D02*
X136660714Y-92526247D01*
X136660714Y-92526247D02*
X136184524Y-92621485D01*
X137041667Y-92907200D02*
X137136905Y-92954819D01*
X137136905Y-92954819D02*
X137327381Y-92954819D01*
X137327381Y-92954819D02*
X137422619Y-92907200D01*
X137422619Y-92907200D02*
X137470238Y-92811961D01*
X137470238Y-92811961D02*
X137470238Y-92764342D01*
X137470238Y-92764342D02*
X137422619Y-92669104D01*
X137422619Y-92669104D02*
X137327381Y-92621485D01*
X137327381Y-92621485D02*
X137184524Y-92621485D01*
X137184524Y-92621485D02*
X137089286Y-92573866D01*
X137089286Y-92573866D02*
X137041667Y-92478628D01*
X137041667Y-92478628D02*
X137041667Y-92431009D01*
X137041667Y-92431009D02*
X137089286Y-92335771D01*
X137089286Y-92335771D02*
X137184524Y-92288152D01*
X137184524Y-92288152D02*
X137327381Y-92288152D01*
X137327381Y-92288152D02*
X137422619Y-92335771D01*
X138279762Y-92907200D02*
X138184524Y-92954819D01*
X138184524Y-92954819D02*
X137994048Y-92954819D01*
X137994048Y-92954819D02*
X137898810Y-92907200D01*
X137898810Y-92907200D02*
X137851191Y-92811961D01*
X137851191Y-92811961D02*
X137851191Y-92431009D01*
X137851191Y-92431009D02*
X137898810Y-92335771D01*
X137898810Y-92335771D02*
X137994048Y-92288152D01*
X137994048Y-92288152D02*
X138184524Y-92288152D01*
X138184524Y-92288152D02*
X138279762Y-92335771D01*
X138279762Y-92335771D02*
X138327381Y-92431009D01*
X138327381Y-92431009D02*
X138327381Y-92526247D01*
X138327381Y-92526247D02*
X137851191Y-92621485D01*
X138613096Y-92288152D02*
X138994048Y-92288152D01*
X138755953Y-91954819D02*
X138755953Y-92811961D01*
X138755953Y-92811961D02*
X138803572Y-92907200D01*
X138803572Y-92907200D02*
X138898810Y-92954819D01*
X138898810Y-92954819D02*
X138994048Y-92954819D01*
X126941666Y-88254819D02*
X126941666Y-88969104D01*
X126941666Y-88969104D02*
X126894047Y-89111961D01*
X126894047Y-89111961D02*
X126798809Y-89207200D01*
X126798809Y-89207200D02*
X126655952Y-89254819D01*
X126655952Y-89254819D02*
X126560714Y-89254819D01*
X127322619Y-88254819D02*
X127989285Y-88254819D01*
X127989285Y-88254819D02*
X127560714Y-89254819D01*
X125980952Y-92854819D02*
X125980952Y-92188152D01*
X125980952Y-92378628D02*
X126028571Y-92283390D01*
X126028571Y-92283390D02*
X126076190Y-92235771D01*
X126076190Y-92235771D02*
X126171428Y-92188152D01*
X126171428Y-92188152D02*
X126266666Y-92188152D01*
X126980952Y-92807200D02*
X126885714Y-92854819D01*
X126885714Y-92854819D02*
X126695238Y-92854819D01*
X126695238Y-92854819D02*
X126600000Y-92807200D01*
X126600000Y-92807200D02*
X126552381Y-92711961D01*
X126552381Y-92711961D02*
X126552381Y-92331009D01*
X126552381Y-92331009D02*
X126600000Y-92235771D01*
X126600000Y-92235771D02*
X126695238Y-92188152D01*
X126695238Y-92188152D02*
X126885714Y-92188152D01*
X126885714Y-92188152D02*
X126980952Y-92235771D01*
X126980952Y-92235771D02*
X127028571Y-92331009D01*
X127028571Y-92331009D02*
X127028571Y-92426247D01*
X127028571Y-92426247D02*
X126552381Y-92521485D01*
X127409524Y-92807200D02*
X127504762Y-92854819D01*
X127504762Y-92854819D02*
X127695238Y-92854819D01*
X127695238Y-92854819D02*
X127790476Y-92807200D01*
X127790476Y-92807200D02*
X127838095Y-92711961D01*
X127838095Y-92711961D02*
X127838095Y-92664342D01*
X127838095Y-92664342D02*
X127790476Y-92569104D01*
X127790476Y-92569104D02*
X127695238Y-92521485D01*
X127695238Y-92521485D02*
X127552381Y-92521485D01*
X127552381Y-92521485D02*
X127457143Y-92473866D01*
X127457143Y-92473866D02*
X127409524Y-92378628D01*
X127409524Y-92378628D02*
X127409524Y-92331009D01*
X127409524Y-92331009D02*
X127457143Y-92235771D01*
X127457143Y-92235771D02*
X127552381Y-92188152D01*
X127552381Y-92188152D02*
X127695238Y-92188152D01*
X127695238Y-92188152D02*
X127790476Y-92235771D01*
X128647619Y-92807200D02*
X128552381Y-92854819D01*
X128552381Y-92854819D02*
X128361905Y-92854819D01*
X128361905Y-92854819D02*
X128266667Y-92807200D01*
X128266667Y-92807200D02*
X128219048Y-92711961D01*
X128219048Y-92711961D02*
X128219048Y-92331009D01*
X128219048Y-92331009D02*
X128266667Y-92235771D01*
X128266667Y-92235771D02*
X128361905Y-92188152D01*
X128361905Y-92188152D02*
X128552381Y-92188152D01*
X128552381Y-92188152D02*
X128647619Y-92235771D01*
X128647619Y-92235771D02*
X128695238Y-92331009D01*
X128695238Y-92331009D02*
X128695238Y-92426247D01*
X128695238Y-92426247D02*
X128219048Y-92521485D01*
X128980953Y-92188152D02*
X129361905Y-92188152D01*
X129123810Y-91854819D02*
X129123810Y-92711961D01*
X129123810Y-92711961D02*
X129171429Y-92807200D01*
X129171429Y-92807200D02*
X129266667Y-92854819D01*
X129266667Y-92854819D02*
X129361905Y-92854819D01*
X150066666Y-123634819D02*
X150066666Y-124349104D01*
X150066666Y-124349104D02*
X150019047Y-124491961D01*
X150019047Y-124491961D02*
X149923809Y-124587200D01*
X149923809Y-124587200D02*
X149780952Y-124634819D01*
X149780952Y-124634819D02*
X149685714Y-124634819D01*
X150971428Y-123634819D02*
X150780952Y-123634819D01*
X150780952Y-123634819D02*
X150685714Y-123682438D01*
X150685714Y-123682438D02*
X150638095Y-123730057D01*
X150638095Y-123730057D02*
X150542857Y-123872914D01*
X150542857Y-123872914D02*
X150495238Y-124063390D01*
X150495238Y-124063390D02*
X150495238Y-124444342D01*
X150495238Y-124444342D02*
X150542857Y-124539580D01*
X150542857Y-124539580D02*
X150590476Y-124587200D01*
X150590476Y-124587200D02*
X150685714Y-124634819D01*
X150685714Y-124634819D02*
X150876190Y-124634819D01*
X150876190Y-124634819D02*
X150971428Y-124587200D01*
X150971428Y-124587200D02*
X151019047Y-124539580D01*
X151019047Y-124539580D02*
X151066666Y-124444342D01*
X151066666Y-124444342D02*
X151066666Y-124206247D01*
X151066666Y-124206247D02*
X151019047Y-124111009D01*
X151019047Y-124111009D02*
X150971428Y-124063390D01*
X150971428Y-124063390D02*
X150876190Y-124015771D01*
X150876190Y-124015771D02*
X150685714Y-124015771D01*
X150685714Y-124015771D02*
X150590476Y-124063390D01*
X150590476Y-124063390D02*
X150542857Y-124111009D01*
X150542857Y-124111009D02*
X150495238Y-124206247D01*
X152702438Y-123942857D02*
X152654819Y-124038095D01*
X152654819Y-124038095D02*
X152654819Y-124180952D01*
X152654819Y-124180952D02*
X152702438Y-124323809D01*
X152702438Y-124323809D02*
X152797676Y-124419047D01*
X152797676Y-124419047D02*
X152892914Y-124466666D01*
X152892914Y-124466666D02*
X153083390Y-124514285D01*
X153083390Y-124514285D02*
X153226247Y-124514285D01*
X153226247Y-124514285D02*
X153416723Y-124466666D01*
X153416723Y-124466666D02*
X153511961Y-124419047D01*
X153511961Y-124419047D02*
X153607200Y-124323809D01*
X153607200Y-124323809D02*
X153654819Y-124180952D01*
X153654819Y-124180952D02*
X153654819Y-124085714D01*
X153654819Y-124085714D02*
X153607200Y-123942857D01*
X153607200Y-123942857D02*
X153559580Y-123895238D01*
X153559580Y-123895238D02*
X153226247Y-123895238D01*
X153226247Y-123895238D02*
X153226247Y-124085714D01*
X152654819Y-123466666D02*
X153464342Y-123466666D01*
X153464342Y-123466666D02*
X153559580Y-123419047D01*
X153559580Y-123419047D02*
X153607200Y-123371428D01*
X153607200Y-123371428D02*
X153654819Y-123276190D01*
X153654819Y-123276190D02*
X153654819Y-123085714D01*
X153654819Y-123085714D02*
X153607200Y-122990476D01*
X153607200Y-122990476D02*
X153559580Y-122942857D01*
X153559580Y-122942857D02*
X153464342Y-122895238D01*
X153464342Y-122895238D02*
X152654819Y-122895238D01*
X152654819Y-122561904D02*
X153654819Y-122228571D01*
X153654819Y-122228571D02*
X152654819Y-121895238D01*
X153369104Y-121609523D02*
X153369104Y-121133333D01*
X153654819Y-121704761D02*
X152654819Y-121371428D01*
X152654819Y-121371428D02*
X153654819Y-121038095D01*
X153273866Y-120704761D02*
X153273866Y-119942857D01*
X153607200Y-119514285D02*
X153654819Y-119371428D01*
X153654819Y-119371428D02*
X153654819Y-119133333D01*
X153654819Y-119133333D02*
X153607200Y-119038095D01*
X153607200Y-119038095D02*
X153559580Y-118990476D01*
X153559580Y-118990476D02*
X153464342Y-118942857D01*
X153464342Y-118942857D02*
X153369104Y-118942857D01*
X153369104Y-118942857D02*
X153273866Y-118990476D01*
X153273866Y-118990476D02*
X153226247Y-119038095D01*
X153226247Y-119038095D02*
X153178628Y-119133333D01*
X153178628Y-119133333D02*
X153131009Y-119323809D01*
X153131009Y-119323809D02*
X153083390Y-119419047D01*
X153083390Y-119419047D02*
X153035771Y-119466666D01*
X153035771Y-119466666D02*
X152940533Y-119514285D01*
X152940533Y-119514285D02*
X152845295Y-119514285D01*
X152845295Y-119514285D02*
X152750057Y-119466666D01*
X152750057Y-119466666D02*
X152702438Y-119419047D01*
X152702438Y-119419047D02*
X152654819Y-119323809D01*
X152654819Y-119323809D02*
X152654819Y-119085714D01*
X152654819Y-119085714D02*
X152702438Y-118942857D01*
X153654819Y-117990476D02*
X153654819Y-118561904D01*
X153654819Y-118276190D02*
X152654819Y-118276190D01*
X152654819Y-118276190D02*
X152797676Y-118371428D01*
X152797676Y-118371428D02*
X152892914Y-118466666D01*
X152892914Y-118466666D02*
X152940533Y-118561904D01*
X152750057Y-117609523D02*
X152702438Y-117561904D01*
X152702438Y-117561904D02*
X152654819Y-117466666D01*
X152654819Y-117466666D02*
X152654819Y-117228571D01*
X152654819Y-117228571D02*
X152702438Y-117133333D01*
X152702438Y-117133333D02*
X152750057Y-117085714D01*
X152750057Y-117085714D02*
X152845295Y-117038095D01*
X152845295Y-117038095D02*
X152940533Y-117038095D01*
X152940533Y-117038095D02*
X153083390Y-117085714D01*
X153083390Y-117085714D02*
X153654819Y-117657142D01*
X153654819Y-117657142D02*
X153654819Y-117038095D01*
X153607200Y-116657142D02*
X153654819Y-116514285D01*
X153654819Y-116514285D02*
X153654819Y-116276190D01*
X153654819Y-116276190D02*
X153607200Y-116180952D01*
X153607200Y-116180952D02*
X153559580Y-116133333D01*
X153559580Y-116133333D02*
X153464342Y-116085714D01*
X153464342Y-116085714D02*
X153369104Y-116085714D01*
X153369104Y-116085714D02*
X153273866Y-116133333D01*
X153273866Y-116133333D02*
X153226247Y-116180952D01*
X153226247Y-116180952D02*
X153178628Y-116276190D01*
X153178628Y-116276190D02*
X153131009Y-116466666D01*
X153131009Y-116466666D02*
X153083390Y-116561904D01*
X153083390Y-116561904D02*
X153035771Y-116609523D01*
X153035771Y-116609523D02*
X152940533Y-116657142D01*
X152940533Y-116657142D02*
X152845295Y-116657142D01*
X152845295Y-116657142D02*
X152750057Y-116609523D01*
X152750057Y-116609523D02*
X152702438Y-116561904D01*
X152702438Y-116561904D02*
X152654819Y-116466666D01*
X152654819Y-116466666D02*
X152654819Y-116228571D01*
X152654819Y-116228571D02*
X152702438Y-116085714D01*
X153654819Y-115657142D02*
X152654819Y-115657142D01*
X152654819Y-115657142D02*
X152654819Y-115419047D01*
X152654819Y-115419047D02*
X152702438Y-115276190D01*
X152702438Y-115276190D02*
X152797676Y-115180952D01*
X152797676Y-115180952D02*
X152892914Y-115133333D01*
X152892914Y-115133333D02*
X153083390Y-115085714D01*
X153083390Y-115085714D02*
X153226247Y-115085714D01*
X153226247Y-115085714D02*
X153416723Y-115133333D01*
X153416723Y-115133333D02*
X153511961Y-115180952D01*
X153511961Y-115180952D02*
X153607200Y-115276190D01*
X153607200Y-115276190D02*
X153654819Y-115419047D01*
X153654819Y-115419047D02*
X153654819Y-115657142D01*
X122266666Y-95254819D02*
X122266666Y-95969104D01*
X122266666Y-95969104D02*
X122219047Y-96111961D01*
X122219047Y-96111961D02*
X122123809Y-96207200D01*
X122123809Y-96207200D02*
X121980952Y-96254819D01*
X121980952Y-96254819D02*
X121885714Y-96254819D01*
X123219047Y-95254819D02*
X122742857Y-95254819D01*
X122742857Y-95254819D02*
X122695238Y-95731009D01*
X122695238Y-95731009D02*
X122742857Y-95683390D01*
X122742857Y-95683390D02*
X122838095Y-95635771D01*
X122838095Y-95635771D02*
X123076190Y-95635771D01*
X123076190Y-95635771D02*
X123171428Y-95683390D01*
X123171428Y-95683390D02*
X123219047Y-95731009D01*
X123219047Y-95731009D02*
X123266666Y-95826247D01*
X123266666Y-95826247D02*
X123266666Y-96064342D01*
X123266666Y-96064342D02*
X123219047Y-96159580D01*
X123219047Y-96159580D02*
X123171428Y-96207200D01*
X123171428Y-96207200D02*
X123076190Y-96254819D01*
X123076190Y-96254819D02*
X122838095Y-96254819D01*
X122838095Y-96254819D02*
X122742857Y-96207200D01*
X122742857Y-96207200D02*
X122695238Y-96159580D01*
X119385714Y-83874819D02*
X119385714Y-82874819D01*
X119385714Y-82874819D02*
X119766666Y-82874819D01*
X119766666Y-82874819D02*
X119861904Y-82922438D01*
X119861904Y-82922438D02*
X119909523Y-82970057D01*
X119909523Y-82970057D02*
X119957142Y-83065295D01*
X119957142Y-83065295D02*
X119957142Y-83208152D01*
X119957142Y-83208152D02*
X119909523Y-83303390D01*
X119909523Y-83303390D02*
X119861904Y-83351009D01*
X119861904Y-83351009D02*
X119766666Y-83398628D01*
X119766666Y-83398628D02*
X119385714Y-83398628D01*
X120385714Y-83874819D02*
X120385714Y-82874819D01*
X120385714Y-82874819D02*
X120719047Y-83589104D01*
X120719047Y-83589104D02*
X121052380Y-82874819D01*
X121052380Y-82874819D02*
X121052380Y-83874819D01*
X121480952Y-83827200D02*
X121623809Y-83874819D01*
X121623809Y-83874819D02*
X121861904Y-83874819D01*
X121861904Y-83874819D02*
X121957142Y-83827200D01*
X121957142Y-83827200D02*
X122004761Y-83779580D01*
X122004761Y-83779580D02*
X122052380Y-83684342D01*
X122052380Y-83684342D02*
X122052380Y-83589104D01*
X122052380Y-83589104D02*
X122004761Y-83493866D01*
X122004761Y-83493866D02*
X121957142Y-83446247D01*
X121957142Y-83446247D02*
X121861904Y-83398628D01*
X121861904Y-83398628D02*
X121671428Y-83351009D01*
X121671428Y-83351009D02*
X121576190Y-83303390D01*
X121576190Y-83303390D02*
X121528571Y-83255771D01*
X121528571Y-83255771D02*
X121480952Y-83160533D01*
X121480952Y-83160533D02*
X121480952Y-83065295D01*
X121480952Y-83065295D02*
X121528571Y-82970057D01*
X121528571Y-82970057D02*
X121576190Y-82922438D01*
X121576190Y-82922438D02*
X121671428Y-82874819D01*
X121671428Y-82874819D02*
X121909523Y-82874819D01*
X121909523Y-82874819D02*
X122052380Y-82922438D01*
X122957142Y-82874819D02*
X122480952Y-82874819D01*
X122480952Y-82874819D02*
X122433333Y-83351009D01*
X122433333Y-83351009D02*
X122480952Y-83303390D01*
X122480952Y-83303390D02*
X122576190Y-83255771D01*
X122576190Y-83255771D02*
X122814285Y-83255771D01*
X122814285Y-83255771D02*
X122909523Y-83303390D01*
X122909523Y-83303390D02*
X122957142Y-83351009D01*
X122957142Y-83351009D02*
X123004761Y-83446247D01*
X123004761Y-83446247D02*
X123004761Y-83684342D01*
X123004761Y-83684342D02*
X122957142Y-83779580D01*
X122957142Y-83779580D02*
X122909523Y-83827200D01*
X122909523Y-83827200D02*
X122814285Y-83874819D01*
X122814285Y-83874819D02*
X122576190Y-83874819D01*
X122576190Y-83874819D02*
X122480952Y-83827200D01*
X122480952Y-83827200D02*
X122433333Y-83779580D01*
X123338095Y-82874819D02*
X123957142Y-82874819D01*
X123957142Y-82874819D02*
X123623809Y-83255771D01*
X123623809Y-83255771D02*
X123766666Y-83255771D01*
X123766666Y-83255771D02*
X123861904Y-83303390D01*
X123861904Y-83303390D02*
X123909523Y-83351009D01*
X123909523Y-83351009D02*
X123957142Y-83446247D01*
X123957142Y-83446247D02*
X123957142Y-83684342D01*
X123957142Y-83684342D02*
X123909523Y-83779580D01*
X123909523Y-83779580D02*
X123861904Y-83827200D01*
X123861904Y-83827200D02*
X123766666Y-83874819D01*
X123766666Y-83874819D02*
X123480952Y-83874819D01*
X123480952Y-83874819D02*
X123385714Y-83827200D01*
X123385714Y-83827200D02*
X123338095Y-83779580D01*
X124576190Y-82874819D02*
X124671428Y-82874819D01*
X124671428Y-82874819D02*
X124766666Y-82922438D01*
X124766666Y-82922438D02*
X124814285Y-82970057D01*
X124814285Y-82970057D02*
X124861904Y-83065295D01*
X124861904Y-83065295D02*
X124909523Y-83255771D01*
X124909523Y-83255771D02*
X124909523Y-83493866D01*
X124909523Y-83493866D02*
X124861904Y-83684342D01*
X124861904Y-83684342D02*
X124814285Y-83779580D01*
X124814285Y-83779580D02*
X124766666Y-83827200D01*
X124766666Y-83827200D02*
X124671428Y-83874819D01*
X124671428Y-83874819D02*
X124576190Y-83874819D01*
X124576190Y-83874819D02*
X124480952Y-83827200D01*
X124480952Y-83827200D02*
X124433333Y-83779580D01*
X124433333Y-83779580D02*
X124385714Y-83684342D01*
X124385714Y-83684342D02*
X124338095Y-83493866D01*
X124338095Y-83493866D02*
X124338095Y-83255771D01*
X124338095Y-83255771D02*
X124385714Y-83065295D01*
X124385714Y-83065295D02*
X124433333Y-82970057D01*
X124433333Y-82970057D02*
X124480952Y-82922438D01*
X124480952Y-82922438D02*
X124576190Y-82874819D01*
X125242857Y-82874819D02*
X125861904Y-82874819D01*
X125861904Y-82874819D02*
X125528571Y-83255771D01*
X125528571Y-83255771D02*
X125671428Y-83255771D01*
X125671428Y-83255771D02*
X125766666Y-83303390D01*
X125766666Y-83303390D02*
X125814285Y-83351009D01*
X125814285Y-83351009D02*
X125861904Y-83446247D01*
X125861904Y-83446247D02*
X125861904Y-83684342D01*
X125861904Y-83684342D02*
X125814285Y-83779580D01*
X125814285Y-83779580D02*
X125766666Y-83827200D01*
X125766666Y-83827200D02*
X125671428Y-83874819D01*
X125671428Y-83874819D02*
X125385714Y-83874819D01*
X125385714Y-83874819D02*
X125290476Y-83827200D01*
X125290476Y-83827200D02*
X125242857Y-83779580D01*
X150066666Y-100374819D02*
X150066666Y-101089104D01*
X150066666Y-101089104D02*
X150019047Y-101231961D01*
X150019047Y-101231961D02*
X149923809Y-101327200D01*
X149923809Y-101327200D02*
X149780952Y-101374819D01*
X149780952Y-101374819D02*
X149685714Y-101374819D01*
X150971428Y-100708152D02*
X150971428Y-101374819D01*
X150733333Y-100327200D02*
X150495238Y-101041485D01*
X150495238Y-101041485D02*
X151114285Y-101041485D01*
X152654819Y-96133333D02*
X152654819Y-96609523D01*
X152654819Y-96609523D02*
X153131009Y-96657142D01*
X153131009Y-96657142D02*
X153083390Y-96609523D01*
X153083390Y-96609523D02*
X153035771Y-96514285D01*
X153035771Y-96514285D02*
X153035771Y-96276190D01*
X153035771Y-96276190D02*
X153083390Y-96180952D01*
X153083390Y-96180952D02*
X153131009Y-96133333D01*
X153131009Y-96133333D02*
X153226247Y-96085714D01*
X153226247Y-96085714D02*
X153464342Y-96085714D01*
X153464342Y-96085714D02*
X153559580Y-96133333D01*
X153559580Y-96133333D02*
X153607200Y-96180952D01*
X153607200Y-96180952D02*
X153654819Y-96276190D01*
X153654819Y-96276190D02*
X153654819Y-96514285D01*
X153654819Y-96514285D02*
X153607200Y-96609523D01*
X153607200Y-96609523D02*
X153559580Y-96657142D01*
X152654819Y-95799999D02*
X153654819Y-95466666D01*
X153654819Y-95466666D02*
X152654819Y-95133333D01*
X153654819Y-94038094D02*
X152654819Y-94038094D01*
X153654819Y-93561904D02*
X152654819Y-93561904D01*
X152654819Y-93561904D02*
X153654819Y-92990476D01*
X153654819Y-92990476D02*
X152654819Y-92990476D01*
X121866666Y-108474819D02*
X121866666Y-109189104D01*
X121866666Y-109189104D02*
X121819047Y-109331961D01*
X121819047Y-109331961D02*
X121723809Y-109427200D01*
X121723809Y-109427200D02*
X121580952Y-109474819D01*
X121580952Y-109474819D02*
X121485714Y-109474819D01*
X122247619Y-108474819D02*
X122866666Y-108474819D01*
X122866666Y-108474819D02*
X122533333Y-108855771D01*
X122533333Y-108855771D02*
X122676190Y-108855771D01*
X122676190Y-108855771D02*
X122771428Y-108903390D01*
X122771428Y-108903390D02*
X122819047Y-108951009D01*
X122819047Y-108951009D02*
X122866666Y-109046247D01*
X122866666Y-109046247D02*
X122866666Y-109284342D01*
X122866666Y-109284342D02*
X122819047Y-109379580D01*
X122819047Y-109379580D02*
X122771428Y-109427200D01*
X122771428Y-109427200D02*
X122676190Y-109474819D01*
X122676190Y-109474819D02*
X122390476Y-109474819D01*
X122390476Y-109474819D02*
X122295238Y-109427200D01*
X122295238Y-109427200D02*
X122247619Y-109379580D01*
X119131009Y-119157142D02*
X119178628Y-119014285D01*
X119178628Y-119014285D02*
X119226247Y-118966666D01*
X119226247Y-118966666D02*
X119321485Y-118919047D01*
X119321485Y-118919047D02*
X119464342Y-118919047D01*
X119464342Y-118919047D02*
X119559580Y-118966666D01*
X119559580Y-118966666D02*
X119607200Y-119014285D01*
X119607200Y-119014285D02*
X119654819Y-119109523D01*
X119654819Y-119109523D02*
X119654819Y-119490475D01*
X119654819Y-119490475D02*
X118654819Y-119490475D01*
X118654819Y-119490475D02*
X118654819Y-119157142D01*
X118654819Y-119157142D02*
X118702438Y-119061904D01*
X118702438Y-119061904D02*
X118750057Y-119014285D01*
X118750057Y-119014285D02*
X118845295Y-118966666D01*
X118845295Y-118966666D02*
X118940533Y-118966666D01*
X118940533Y-118966666D02*
X119035771Y-119014285D01*
X119035771Y-119014285D02*
X119083390Y-119061904D01*
X119083390Y-119061904D02*
X119131009Y-119157142D01*
X119131009Y-119157142D02*
X119131009Y-119490475D01*
X119654819Y-118490475D02*
X118654819Y-118490475D01*
X119131009Y-118490475D02*
X119131009Y-117919047D01*
X119654819Y-117919047D02*
X118654819Y-117919047D01*
X119654819Y-116919047D02*
X119654819Y-117490475D01*
X119654819Y-117204761D02*
X118654819Y-117204761D01*
X118654819Y-117204761D02*
X118797676Y-117299999D01*
X118797676Y-117299999D02*
X118892914Y-117395237D01*
X118892914Y-117395237D02*
X118940533Y-117490475D01*
X118654819Y-116585713D02*
X118654819Y-115919047D01*
X118654819Y-115919047D02*
X119654819Y-116347618D01*
X118654819Y-115061904D02*
X118654819Y-115538094D01*
X118654819Y-115538094D02*
X119131009Y-115585713D01*
X119131009Y-115585713D02*
X119083390Y-115538094D01*
X119083390Y-115538094D02*
X119035771Y-115442856D01*
X119035771Y-115442856D02*
X119035771Y-115204761D01*
X119035771Y-115204761D02*
X119083390Y-115109523D01*
X119083390Y-115109523D02*
X119131009Y-115061904D01*
X119131009Y-115061904D02*
X119226247Y-115014285D01*
X119226247Y-115014285D02*
X119464342Y-115014285D01*
X119464342Y-115014285D02*
X119559580Y-115061904D01*
X119559580Y-115061904D02*
X119607200Y-115109523D01*
X119607200Y-115109523D02*
X119654819Y-115204761D01*
X119654819Y-115204761D02*
X119654819Y-115442856D01*
X119654819Y-115442856D02*
X119607200Y-115538094D01*
X119607200Y-115538094D02*
X119559580Y-115585713D01*
X118654819Y-114395237D02*
X118654819Y-114299999D01*
X118654819Y-114299999D02*
X118702438Y-114204761D01*
X118702438Y-114204761D02*
X118750057Y-114157142D01*
X118750057Y-114157142D02*
X118845295Y-114109523D01*
X118845295Y-114109523D02*
X119035771Y-114061904D01*
X119035771Y-114061904D02*
X119273866Y-114061904D01*
X119273866Y-114061904D02*
X119464342Y-114109523D01*
X119464342Y-114109523D02*
X119559580Y-114157142D01*
X119559580Y-114157142D02*
X119607200Y-114204761D01*
X119607200Y-114204761D02*
X119654819Y-114299999D01*
X119654819Y-114299999D02*
X119654819Y-114395237D01*
X119654819Y-114395237D02*
X119607200Y-114490475D01*
X119607200Y-114490475D02*
X119559580Y-114538094D01*
X119559580Y-114538094D02*
X119464342Y-114585713D01*
X119464342Y-114585713D02*
X119273866Y-114633332D01*
X119273866Y-114633332D02*
X119035771Y-114633332D01*
X119035771Y-114633332D02*
X118845295Y-114585713D01*
X118845295Y-114585713D02*
X118750057Y-114538094D01*
X118750057Y-114538094D02*
X118702438Y-114490475D01*
X118702438Y-114490475D02*
X118654819Y-114395237D01*
X150066666Y-113644819D02*
X150066666Y-114359104D01*
X150066666Y-114359104D02*
X150019047Y-114501961D01*
X150019047Y-114501961D02*
X149923809Y-114597200D01*
X149923809Y-114597200D02*
X149780952Y-114644819D01*
X149780952Y-114644819D02*
X149685714Y-114644819D01*
X150495238Y-113740057D02*
X150542857Y-113692438D01*
X150542857Y-113692438D02*
X150638095Y-113644819D01*
X150638095Y-113644819D02*
X150876190Y-113644819D01*
X150876190Y-113644819D02*
X150971428Y-113692438D01*
X150971428Y-113692438D02*
X151019047Y-113740057D01*
X151019047Y-113740057D02*
X151066666Y-113835295D01*
X151066666Y-113835295D02*
X151066666Y-113930533D01*
X151066666Y-113930533D02*
X151019047Y-114073390D01*
X151019047Y-114073390D02*
X150447619Y-114644819D01*
X150447619Y-114644819D02*
X151066666Y-114644819D01*
X153454819Y-113361905D02*
X152978628Y-113695238D01*
X153454819Y-113933333D02*
X152454819Y-113933333D01*
X152454819Y-113933333D02*
X152454819Y-113552381D01*
X152454819Y-113552381D02*
X152502438Y-113457143D01*
X152502438Y-113457143D02*
X152550057Y-113409524D01*
X152550057Y-113409524D02*
X152645295Y-113361905D01*
X152645295Y-113361905D02*
X152788152Y-113361905D01*
X152788152Y-113361905D02*
X152883390Y-113409524D01*
X152883390Y-113409524D02*
X152931009Y-113457143D01*
X152931009Y-113457143D02*
X152978628Y-113552381D01*
X152978628Y-113552381D02*
X152978628Y-113933333D01*
X153454819Y-112504762D02*
X152931009Y-112504762D01*
X152931009Y-112504762D02*
X152835771Y-112552381D01*
X152835771Y-112552381D02*
X152788152Y-112647619D01*
X152788152Y-112647619D02*
X152788152Y-112838095D01*
X152788152Y-112838095D02*
X152835771Y-112933333D01*
X153407200Y-112504762D02*
X153454819Y-112600000D01*
X153454819Y-112600000D02*
X153454819Y-112838095D01*
X153454819Y-112838095D02*
X153407200Y-112933333D01*
X153407200Y-112933333D02*
X153311961Y-112980952D01*
X153311961Y-112980952D02*
X153216723Y-112980952D01*
X153216723Y-112980952D02*
X153121485Y-112933333D01*
X153121485Y-112933333D02*
X153073866Y-112838095D01*
X153073866Y-112838095D02*
X153073866Y-112600000D01*
X153073866Y-112600000D02*
X153026247Y-112504762D01*
X153454819Y-112028571D02*
X152788152Y-112028571D01*
X152454819Y-112028571D02*
X152502438Y-112076190D01*
X152502438Y-112076190D02*
X152550057Y-112028571D01*
X152550057Y-112028571D02*
X152502438Y-111980952D01*
X152502438Y-111980952D02*
X152454819Y-112028571D01*
X152454819Y-112028571D02*
X152550057Y-112028571D01*
X152788152Y-111552381D02*
X153454819Y-111552381D01*
X152883390Y-111552381D02*
X152835771Y-111504762D01*
X152835771Y-111504762D02*
X152788152Y-111409524D01*
X152788152Y-111409524D02*
X152788152Y-111266667D01*
X152788152Y-111266667D02*
X152835771Y-111171429D01*
X152835771Y-111171429D02*
X152931009Y-111123810D01*
X152931009Y-111123810D02*
X153454819Y-111123810D01*
X153454819Y-109885714D02*
X152454819Y-109885714D01*
X152454819Y-109885714D02*
X152454819Y-109647619D01*
X152454819Y-109647619D02*
X152502438Y-109504762D01*
X152502438Y-109504762D02*
X152597676Y-109409524D01*
X152597676Y-109409524D02*
X152692914Y-109361905D01*
X152692914Y-109361905D02*
X152883390Y-109314286D01*
X152883390Y-109314286D02*
X153026247Y-109314286D01*
X153026247Y-109314286D02*
X153216723Y-109361905D01*
X153216723Y-109361905D02*
X153311961Y-109409524D01*
X153311961Y-109409524D02*
X153407200Y-109504762D01*
X153407200Y-109504762D02*
X153454819Y-109647619D01*
X153454819Y-109647619D02*
X153454819Y-109885714D01*
X153454819Y-108885714D02*
X152788152Y-108885714D01*
X152978628Y-108885714D02*
X152883390Y-108838095D01*
X152883390Y-108838095D02*
X152835771Y-108790476D01*
X152835771Y-108790476D02*
X152788152Y-108695238D01*
X152788152Y-108695238D02*
X152788152Y-108600000D01*
X153454819Y-108123809D02*
X153407200Y-108219047D01*
X153407200Y-108219047D02*
X153359580Y-108266666D01*
X153359580Y-108266666D02*
X153264342Y-108314285D01*
X153264342Y-108314285D02*
X152978628Y-108314285D01*
X152978628Y-108314285D02*
X152883390Y-108266666D01*
X152883390Y-108266666D02*
X152835771Y-108219047D01*
X152835771Y-108219047D02*
X152788152Y-108123809D01*
X152788152Y-108123809D02*
X152788152Y-107980952D01*
X152788152Y-107980952D02*
X152835771Y-107885714D01*
X152835771Y-107885714D02*
X152883390Y-107838095D01*
X152883390Y-107838095D02*
X152978628Y-107790476D01*
X152978628Y-107790476D02*
X153264342Y-107790476D01*
X153264342Y-107790476D02*
X153359580Y-107838095D01*
X153359580Y-107838095D02*
X153407200Y-107885714D01*
X153407200Y-107885714D02*
X153454819Y-107980952D01*
X153454819Y-107980952D02*
X153454819Y-108123809D01*
X152788152Y-107361904D02*
X153788152Y-107361904D01*
X152835771Y-107361904D02*
X152788152Y-107266666D01*
X152788152Y-107266666D02*
X152788152Y-107076190D01*
X152788152Y-107076190D02*
X152835771Y-106980952D01*
X152835771Y-106980952D02*
X152883390Y-106933333D01*
X152883390Y-106933333D02*
X152978628Y-106885714D01*
X152978628Y-106885714D02*
X153264342Y-106885714D01*
X153264342Y-106885714D02*
X153359580Y-106933333D01*
X153359580Y-106933333D02*
X153407200Y-106980952D01*
X153407200Y-106980952D02*
X153454819Y-107076190D01*
X153454819Y-107076190D02*
X153454819Y-107266666D01*
X153454819Y-107266666D02*
X153407200Y-107361904D01*
X153407200Y-105742856D02*
X153454819Y-105647618D01*
X153454819Y-105647618D02*
X153454819Y-105457142D01*
X153454819Y-105457142D02*
X153407200Y-105361904D01*
X153407200Y-105361904D02*
X153311961Y-105314285D01*
X153311961Y-105314285D02*
X153264342Y-105314285D01*
X153264342Y-105314285D02*
X153169104Y-105361904D01*
X153169104Y-105361904D02*
X153121485Y-105457142D01*
X153121485Y-105457142D02*
X153121485Y-105599999D01*
X153121485Y-105599999D02*
X153073866Y-105695237D01*
X153073866Y-105695237D02*
X152978628Y-105742856D01*
X152978628Y-105742856D02*
X152931009Y-105742856D01*
X152931009Y-105742856D02*
X152835771Y-105695237D01*
X152835771Y-105695237D02*
X152788152Y-105599999D01*
X152788152Y-105599999D02*
X152788152Y-105457142D01*
X152788152Y-105457142D02*
X152835771Y-105361904D01*
X153407200Y-104504761D02*
X153454819Y-104599999D01*
X153454819Y-104599999D02*
X153454819Y-104790475D01*
X153454819Y-104790475D02*
X153407200Y-104885713D01*
X153407200Y-104885713D02*
X153311961Y-104933332D01*
X153311961Y-104933332D02*
X152931009Y-104933332D01*
X152931009Y-104933332D02*
X152835771Y-104885713D01*
X152835771Y-104885713D02*
X152788152Y-104790475D01*
X152788152Y-104790475D02*
X152788152Y-104599999D01*
X152788152Y-104599999D02*
X152835771Y-104504761D01*
X152835771Y-104504761D02*
X152931009Y-104457142D01*
X152931009Y-104457142D02*
X153026247Y-104457142D01*
X153026247Y-104457142D02*
X153121485Y-104933332D01*
X152788152Y-104028570D02*
X153454819Y-104028570D01*
X152883390Y-104028570D02*
X152835771Y-103980951D01*
X152835771Y-103980951D02*
X152788152Y-103885713D01*
X152788152Y-103885713D02*
X152788152Y-103742856D01*
X152788152Y-103742856D02*
X152835771Y-103647618D01*
X152835771Y-103647618D02*
X152931009Y-103599999D01*
X152931009Y-103599999D02*
X153454819Y-103599999D01*
X153407200Y-103171427D02*
X153454819Y-103076189D01*
X153454819Y-103076189D02*
X153454819Y-102885713D01*
X153454819Y-102885713D02*
X153407200Y-102790475D01*
X153407200Y-102790475D02*
X153311961Y-102742856D01*
X153311961Y-102742856D02*
X153264342Y-102742856D01*
X153264342Y-102742856D02*
X153169104Y-102790475D01*
X153169104Y-102790475D02*
X153121485Y-102885713D01*
X153121485Y-102885713D02*
X153121485Y-103028570D01*
X153121485Y-103028570D02*
X153073866Y-103123808D01*
X153073866Y-103123808D02*
X152978628Y-103171427D01*
X152978628Y-103171427D02*
X152931009Y-103171427D01*
X152931009Y-103171427D02*
X152835771Y-103123808D01*
X152835771Y-103123808D02*
X152788152Y-103028570D01*
X152788152Y-103028570D02*
X152788152Y-102885713D01*
X152788152Y-102885713D02*
X152835771Y-102790475D01*
X153454819Y-102171427D02*
X153407200Y-102266665D01*
X153407200Y-102266665D02*
X153359580Y-102314284D01*
X153359580Y-102314284D02*
X153264342Y-102361903D01*
X153264342Y-102361903D02*
X152978628Y-102361903D01*
X152978628Y-102361903D02*
X152883390Y-102314284D01*
X152883390Y-102314284D02*
X152835771Y-102266665D01*
X152835771Y-102266665D02*
X152788152Y-102171427D01*
X152788152Y-102171427D02*
X152788152Y-102028570D01*
X152788152Y-102028570D02*
X152835771Y-101933332D01*
X152835771Y-101933332D02*
X152883390Y-101885713D01*
X152883390Y-101885713D02*
X152978628Y-101838094D01*
X152978628Y-101838094D02*
X153264342Y-101838094D01*
X153264342Y-101838094D02*
X153359580Y-101885713D01*
X153359580Y-101885713D02*
X153407200Y-101933332D01*
X153407200Y-101933332D02*
X153454819Y-102028570D01*
X153454819Y-102028570D02*
X153454819Y-102171427D01*
X153454819Y-101409522D02*
X152788152Y-101409522D01*
X152978628Y-101409522D02*
X152883390Y-101361903D01*
X152883390Y-101361903D02*
X152835771Y-101314284D01*
X152835771Y-101314284D02*
X152788152Y-101219046D01*
X152788152Y-101219046D02*
X152788152Y-101123808D01*
X122066666Y-96994819D02*
X122066666Y-97709104D01*
X122066666Y-97709104D02*
X122019047Y-97851961D01*
X122019047Y-97851961D02*
X121923809Y-97947200D01*
X121923809Y-97947200D02*
X121780952Y-97994819D01*
X121780952Y-97994819D02*
X121685714Y-97994819D01*
X123066666Y-97994819D02*
X122495238Y-97994819D01*
X122780952Y-97994819D02*
X122780952Y-96994819D01*
X122780952Y-96994819D02*
X122685714Y-97137676D01*
X122685714Y-97137676D02*
X122590476Y-97232914D01*
X122590476Y-97232914D02*
X122495238Y-97280533D01*
X119854819Y-104919047D02*
X118854819Y-104919047D01*
X118854819Y-104919047D02*
X118854819Y-104680952D01*
X118854819Y-104680952D02*
X118902438Y-104538095D01*
X118902438Y-104538095D02*
X118997676Y-104442857D01*
X118997676Y-104442857D02*
X119092914Y-104395238D01*
X119092914Y-104395238D02*
X119283390Y-104347619D01*
X119283390Y-104347619D02*
X119426247Y-104347619D01*
X119426247Y-104347619D02*
X119616723Y-104395238D01*
X119616723Y-104395238D02*
X119711961Y-104442857D01*
X119711961Y-104442857D02*
X119807200Y-104538095D01*
X119807200Y-104538095D02*
X119854819Y-104680952D01*
X119854819Y-104680952D02*
X119854819Y-104919047D01*
X119854819Y-103919047D02*
X118854819Y-103919047D01*
X119331009Y-103919047D02*
X119331009Y-103347619D01*
X119854819Y-103347619D02*
X118854819Y-103347619D01*
X118854819Y-103014285D02*
X118854819Y-102442857D01*
X119854819Y-102728571D02*
X118854819Y-102728571D01*
X118950057Y-102157142D02*
X118902438Y-102109523D01*
X118902438Y-102109523D02*
X118854819Y-102014285D01*
X118854819Y-102014285D02*
X118854819Y-101776190D01*
X118854819Y-101776190D02*
X118902438Y-101680952D01*
X118902438Y-101680952D02*
X118950057Y-101633333D01*
X118950057Y-101633333D02*
X119045295Y-101585714D01*
X119045295Y-101585714D02*
X119140533Y-101585714D01*
X119140533Y-101585714D02*
X119283390Y-101633333D01*
X119283390Y-101633333D02*
X119854819Y-102204761D01*
X119854819Y-102204761D02*
X119854819Y-101585714D01*
X118950057Y-101204761D02*
X118902438Y-101157142D01*
X118902438Y-101157142D02*
X118854819Y-101061904D01*
X118854819Y-101061904D02*
X118854819Y-100823809D01*
X118854819Y-100823809D02*
X118902438Y-100728571D01*
X118902438Y-100728571D02*
X118950057Y-100680952D01*
X118950057Y-100680952D02*
X119045295Y-100633333D01*
X119045295Y-100633333D02*
X119140533Y-100633333D01*
X119140533Y-100633333D02*
X119283390Y-100680952D01*
X119283390Y-100680952D02*
X119854819Y-101252380D01*
X119854819Y-101252380D02*
X119854819Y-100633333D01*
X141838095Y-87254819D02*
X141838095Y-88064342D01*
X141838095Y-88064342D02*
X141885714Y-88159580D01*
X141885714Y-88159580D02*
X141933333Y-88207200D01*
X141933333Y-88207200D02*
X142028571Y-88254819D01*
X142028571Y-88254819D02*
X142219047Y-88254819D01*
X142219047Y-88254819D02*
X142314285Y-88207200D01*
X142314285Y-88207200D02*
X142361904Y-88159580D01*
X142361904Y-88159580D02*
X142409523Y-88064342D01*
X142409523Y-88064342D02*
X142409523Y-87254819D01*
X142838095Y-87350057D02*
X142885714Y-87302438D01*
X142885714Y-87302438D02*
X142980952Y-87254819D01*
X142980952Y-87254819D02*
X143219047Y-87254819D01*
X143219047Y-87254819D02*
X143314285Y-87302438D01*
X143314285Y-87302438D02*
X143361904Y-87350057D01*
X143361904Y-87350057D02*
X143409523Y-87445295D01*
X143409523Y-87445295D02*
X143409523Y-87540533D01*
X143409523Y-87540533D02*
X143361904Y-87683390D01*
X143361904Y-87683390D02*
X142790476Y-88254819D01*
X142790476Y-88254819D02*
X143409523Y-88254819D01*
X147469104Y-92749999D02*
X147469104Y-92273809D01*
X147754819Y-92845237D02*
X146754819Y-92511904D01*
X146754819Y-92511904D02*
X147754819Y-92178571D01*
X147754819Y-91845237D02*
X146754819Y-91845237D01*
X146754819Y-91845237D02*
X147469104Y-91511904D01*
X147469104Y-91511904D02*
X146754819Y-91178571D01*
X146754819Y-91178571D02*
X147754819Y-91178571D01*
X147707200Y-90749999D02*
X147754819Y-90607142D01*
X147754819Y-90607142D02*
X147754819Y-90369047D01*
X147754819Y-90369047D02*
X147707200Y-90273809D01*
X147707200Y-90273809D02*
X147659580Y-90226190D01*
X147659580Y-90226190D02*
X147564342Y-90178571D01*
X147564342Y-90178571D02*
X147469104Y-90178571D01*
X147469104Y-90178571D02*
X147373866Y-90226190D01*
X147373866Y-90226190D02*
X147326247Y-90273809D01*
X147326247Y-90273809D02*
X147278628Y-90369047D01*
X147278628Y-90369047D02*
X147231009Y-90559523D01*
X147231009Y-90559523D02*
X147183390Y-90654761D01*
X147183390Y-90654761D02*
X147135771Y-90702380D01*
X147135771Y-90702380D02*
X147040533Y-90749999D01*
X147040533Y-90749999D02*
X146945295Y-90749999D01*
X146945295Y-90749999D02*
X146850057Y-90702380D01*
X146850057Y-90702380D02*
X146802438Y-90654761D01*
X146802438Y-90654761D02*
X146754819Y-90559523D01*
X146754819Y-90559523D02*
X146754819Y-90321428D01*
X146754819Y-90321428D02*
X146802438Y-90178571D01*
X147754819Y-89226190D02*
X147754819Y-89797618D01*
X147754819Y-89511904D02*
X146754819Y-89511904D01*
X146754819Y-89511904D02*
X146897676Y-89607142D01*
X146897676Y-89607142D02*
X146992914Y-89702380D01*
X146992914Y-89702380D02*
X147040533Y-89797618D01*
X147754819Y-88273809D02*
X147754819Y-88845237D01*
X147754819Y-88559523D02*
X146754819Y-88559523D01*
X146754819Y-88559523D02*
X146897676Y-88654761D01*
X146897676Y-88654761D02*
X146992914Y-88749999D01*
X146992914Y-88749999D02*
X147040533Y-88845237D01*
X147754819Y-87321428D02*
X147754819Y-87892856D01*
X147754819Y-87607142D02*
X146754819Y-87607142D01*
X146754819Y-87607142D02*
X146897676Y-87702380D01*
X146897676Y-87702380D02*
X146992914Y-87797618D01*
X146992914Y-87797618D02*
X147040533Y-87892856D01*
X146754819Y-86988094D02*
X146754819Y-86321428D01*
X146754819Y-86321428D02*
X147754819Y-86749999D01*
X147373866Y-85940475D02*
X147373866Y-85178571D01*
X146754819Y-84797618D02*
X146754819Y-84178571D01*
X146754819Y-84178571D02*
X147135771Y-84511904D01*
X147135771Y-84511904D02*
X147135771Y-84369047D01*
X147135771Y-84369047D02*
X147183390Y-84273809D01*
X147183390Y-84273809D02*
X147231009Y-84226190D01*
X147231009Y-84226190D02*
X147326247Y-84178571D01*
X147326247Y-84178571D02*
X147564342Y-84178571D01*
X147564342Y-84178571D02*
X147659580Y-84226190D01*
X147659580Y-84226190D02*
X147707200Y-84273809D01*
X147707200Y-84273809D02*
X147754819Y-84369047D01*
X147754819Y-84369047D02*
X147754819Y-84654761D01*
X147754819Y-84654761D02*
X147707200Y-84749999D01*
X147707200Y-84749999D02*
X147659580Y-84797618D01*
X147659580Y-83749999D02*
X147707200Y-83702380D01*
X147707200Y-83702380D02*
X147754819Y-83749999D01*
X147754819Y-83749999D02*
X147707200Y-83797618D01*
X147707200Y-83797618D02*
X147659580Y-83749999D01*
X147659580Y-83749999D02*
X147754819Y-83749999D01*
X146754819Y-83369047D02*
X146754819Y-82750000D01*
X146754819Y-82750000D02*
X147135771Y-83083333D01*
X147135771Y-83083333D02*
X147135771Y-82940476D01*
X147135771Y-82940476D02*
X147183390Y-82845238D01*
X147183390Y-82845238D02*
X147231009Y-82797619D01*
X147231009Y-82797619D02*
X147326247Y-82750000D01*
X147326247Y-82750000D02*
X147564342Y-82750000D01*
X147564342Y-82750000D02*
X147659580Y-82797619D01*
X147659580Y-82797619D02*
X147707200Y-82845238D01*
X147707200Y-82845238D02*
X147754819Y-82940476D01*
X147754819Y-82940476D02*
X147754819Y-83226190D01*
X147754819Y-83226190D02*
X147707200Y-83321428D01*
X147707200Y-83321428D02*
X147659580Y-83369047D01*
X146314819Y-107851904D02*
X147124342Y-107851904D01*
X147124342Y-107851904D02*
X147219580Y-107804285D01*
X147219580Y-107804285D02*
X147267200Y-107756666D01*
X147267200Y-107756666D02*
X147314819Y-107661428D01*
X147314819Y-107661428D02*
X147314819Y-107470952D01*
X147314819Y-107470952D02*
X147267200Y-107375714D01*
X147267200Y-107375714D02*
X147219580Y-107328095D01*
X147219580Y-107328095D02*
X147124342Y-107280476D01*
X147124342Y-107280476D02*
X146314819Y-107280476D01*
X147314819Y-106280476D02*
X147314819Y-106851904D01*
X147314819Y-106566190D02*
X146314819Y-106566190D01*
X146314819Y-106566190D02*
X146457676Y-106661428D01*
X146457676Y-106661428D02*
X146552914Y-106756666D01*
X146552914Y-106756666D02*
X146600533Y-106851904D01*
X128773810Y-103951009D02*
X129107143Y-103951009D01*
X129250000Y-104474819D02*
X128773810Y-104474819D01*
X128773810Y-104474819D02*
X128773810Y-103474819D01*
X128773810Y-103474819D02*
X129250000Y-103474819D01*
X129630953Y-104427200D02*
X129773810Y-104474819D01*
X129773810Y-104474819D02*
X130011905Y-104474819D01*
X130011905Y-104474819D02*
X130107143Y-104427200D01*
X130107143Y-104427200D02*
X130154762Y-104379580D01*
X130154762Y-104379580D02*
X130202381Y-104284342D01*
X130202381Y-104284342D02*
X130202381Y-104189104D01*
X130202381Y-104189104D02*
X130154762Y-104093866D01*
X130154762Y-104093866D02*
X130107143Y-104046247D01*
X130107143Y-104046247D02*
X130011905Y-103998628D01*
X130011905Y-103998628D02*
X129821429Y-103951009D01*
X129821429Y-103951009D02*
X129726191Y-103903390D01*
X129726191Y-103903390D02*
X129678572Y-103855771D01*
X129678572Y-103855771D02*
X129630953Y-103760533D01*
X129630953Y-103760533D02*
X129630953Y-103665295D01*
X129630953Y-103665295D02*
X129678572Y-103570057D01*
X129678572Y-103570057D02*
X129726191Y-103522438D01*
X129726191Y-103522438D02*
X129821429Y-103474819D01*
X129821429Y-103474819D02*
X130059524Y-103474819D01*
X130059524Y-103474819D02*
X130202381Y-103522438D01*
X130630953Y-104474819D02*
X130630953Y-103474819D01*
X130630953Y-103474819D02*
X131011905Y-103474819D01*
X131011905Y-103474819D02*
X131107143Y-103522438D01*
X131107143Y-103522438D02*
X131154762Y-103570057D01*
X131154762Y-103570057D02*
X131202381Y-103665295D01*
X131202381Y-103665295D02*
X131202381Y-103808152D01*
X131202381Y-103808152D02*
X131154762Y-103903390D01*
X131154762Y-103903390D02*
X131107143Y-103951009D01*
X131107143Y-103951009D02*
X131011905Y-103998628D01*
X131011905Y-103998628D02*
X130630953Y-103998628D01*
X131535715Y-103474819D02*
X132154762Y-103474819D01*
X132154762Y-103474819D02*
X131821429Y-103855771D01*
X131821429Y-103855771D02*
X131964286Y-103855771D01*
X131964286Y-103855771D02*
X132059524Y-103903390D01*
X132059524Y-103903390D02*
X132107143Y-103951009D01*
X132107143Y-103951009D02*
X132154762Y-104046247D01*
X132154762Y-104046247D02*
X132154762Y-104284342D01*
X132154762Y-104284342D02*
X132107143Y-104379580D01*
X132107143Y-104379580D02*
X132059524Y-104427200D01*
X132059524Y-104427200D02*
X131964286Y-104474819D01*
X131964286Y-104474819D02*
X131678572Y-104474819D01*
X131678572Y-104474819D02*
X131583334Y-104427200D01*
X131583334Y-104427200D02*
X131535715Y-104379580D01*
X132535715Y-103570057D02*
X132583334Y-103522438D01*
X132583334Y-103522438D02*
X132678572Y-103474819D01*
X132678572Y-103474819D02*
X132916667Y-103474819D01*
X132916667Y-103474819D02*
X133011905Y-103522438D01*
X133011905Y-103522438D02*
X133059524Y-103570057D01*
X133059524Y-103570057D02*
X133107143Y-103665295D01*
X133107143Y-103665295D02*
X133107143Y-103760533D01*
X133107143Y-103760533D02*
X133059524Y-103903390D01*
X133059524Y-103903390D02*
X132488096Y-104474819D01*
X132488096Y-104474819D02*
X133107143Y-104474819D01*
X133535715Y-104093866D02*
X134297620Y-104093866D01*
X134678572Y-103474819D02*
X134916667Y-104474819D01*
X134916667Y-104474819D02*
X135107143Y-103760533D01*
X135107143Y-103760533D02*
X135297619Y-104474819D01*
X135297619Y-104474819D02*
X135535715Y-103474819D01*
X136488095Y-104474819D02*
X136154762Y-103998628D01*
X135916667Y-104474819D02*
X135916667Y-103474819D01*
X135916667Y-103474819D02*
X136297619Y-103474819D01*
X136297619Y-103474819D02*
X136392857Y-103522438D01*
X136392857Y-103522438D02*
X136440476Y-103570057D01*
X136440476Y-103570057D02*
X136488095Y-103665295D01*
X136488095Y-103665295D02*
X136488095Y-103808152D01*
X136488095Y-103808152D02*
X136440476Y-103903390D01*
X136440476Y-103903390D02*
X136392857Y-103951009D01*
X136392857Y-103951009D02*
X136297619Y-103998628D01*
X136297619Y-103998628D02*
X135916667Y-103998628D01*
X137107143Y-103474819D02*
X137297619Y-103474819D01*
X137297619Y-103474819D02*
X137392857Y-103522438D01*
X137392857Y-103522438D02*
X137488095Y-103617676D01*
X137488095Y-103617676D02*
X137535714Y-103808152D01*
X137535714Y-103808152D02*
X137535714Y-104141485D01*
X137535714Y-104141485D02*
X137488095Y-104331961D01*
X137488095Y-104331961D02*
X137392857Y-104427200D01*
X137392857Y-104427200D02*
X137297619Y-104474819D01*
X137297619Y-104474819D02*
X137107143Y-104474819D01*
X137107143Y-104474819D02*
X137011905Y-104427200D01*
X137011905Y-104427200D02*
X136916667Y-104331961D01*
X136916667Y-104331961D02*
X136869048Y-104141485D01*
X136869048Y-104141485D02*
X136869048Y-103808152D01*
X136869048Y-103808152D02*
X136916667Y-103617676D01*
X136916667Y-103617676D02*
X137011905Y-103522438D01*
X137011905Y-103522438D02*
X137107143Y-103474819D01*
X138154762Y-103474819D02*
X138345238Y-103474819D01*
X138345238Y-103474819D02*
X138440476Y-103522438D01*
X138440476Y-103522438D02*
X138535714Y-103617676D01*
X138535714Y-103617676D02*
X138583333Y-103808152D01*
X138583333Y-103808152D02*
X138583333Y-104141485D01*
X138583333Y-104141485D02*
X138535714Y-104331961D01*
X138535714Y-104331961D02*
X138440476Y-104427200D01*
X138440476Y-104427200D02*
X138345238Y-104474819D01*
X138345238Y-104474819D02*
X138154762Y-104474819D01*
X138154762Y-104474819D02*
X138059524Y-104427200D01*
X138059524Y-104427200D02*
X137964286Y-104331961D01*
X137964286Y-104331961D02*
X137916667Y-104141485D01*
X137916667Y-104141485D02*
X137916667Y-103808152D01*
X137916667Y-103808152D02*
X137964286Y-103617676D01*
X137964286Y-103617676D02*
X138059524Y-103522438D01*
X138059524Y-103522438D02*
X138154762Y-103474819D01*
X139011905Y-104474819D02*
X139011905Y-103474819D01*
X139011905Y-103474819D02*
X139345238Y-104189104D01*
X139345238Y-104189104D02*
X139678571Y-103474819D01*
X139678571Y-103474819D02*
X139678571Y-104474819D01*
X140154762Y-104093866D02*
X140916667Y-104093866D01*
X141297619Y-103474819D02*
X141916666Y-103474819D01*
X141916666Y-103474819D02*
X141583333Y-103855771D01*
X141583333Y-103855771D02*
X141726190Y-103855771D01*
X141726190Y-103855771D02*
X141821428Y-103903390D01*
X141821428Y-103903390D02*
X141869047Y-103951009D01*
X141869047Y-103951009D02*
X141916666Y-104046247D01*
X141916666Y-104046247D02*
X141916666Y-104284342D01*
X141916666Y-104284342D02*
X141869047Y-104379580D01*
X141869047Y-104379580D02*
X141821428Y-104427200D01*
X141821428Y-104427200D02*
X141726190Y-104474819D01*
X141726190Y-104474819D02*
X141440476Y-104474819D01*
X141440476Y-104474819D02*
X141345238Y-104427200D01*
X141345238Y-104427200D02*
X141297619Y-104379580D01*
X142297619Y-103570057D02*
X142345238Y-103522438D01*
X142345238Y-103522438D02*
X142440476Y-103474819D01*
X142440476Y-103474819D02*
X142678571Y-103474819D01*
X142678571Y-103474819D02*
X142773809Y-103522438D01*
X142773809Y-103522438D02*
X142821428Y-103570057D01*
X142821428Y-103570057D02*
X142869047Y-103665295D01*
X142869047Y-103665295D02*
X142869047Y-103760533D01*
X142869047Y-103760533D02*
X142821428Y-103903390D01*
X142821428Y-103903390D02*
X142250000Y-104474819D01*
X142250000Y-104474819D02*
X142869047Y-104474819D01*
X143297619Y-103951009D02*
X143630952Y-103951009D01*
X143773809Y-104474819D02*
X143297619Y-104474819D01*
X143297619Y-104474819D02*
X143297619Y-103474819D01*
X143297619Y-103474819D02*
X143773809Y-103474819D01*
%TO.C,REF\u002A\u002A*%
D11*
X148360000Y-85390000D02*
X148500000Y-85280000D01*
X148360000Y-85550000D02*
X148360000Y-85390000D01*
X148470000Y-85550000D02*
X148360000Y-85550000D01*
X148470000Y-85550000D02*
X148640000Y-85550000D01*
X148500000Y-85010000D02*
X148500000Y-85280000D01*
X148500000Y-85620000D02*
X148470000Y-85550000D01*
X148500000Y-85620000D02*
X148560000Y-85970000D01*
X148560000Y-85970000D02*
X148660000Y-86270000D01*
X148580000Y-84800000D02*
X148500000Y-85010000D01*
X148580000Y-84800000D02*
X148630000Y-84700000D01*
X148630000Y-84700000D02*
X148700000Y-84580000D01*
X148640000Y-85430000D02*
X149440000Y-85430000D01*
X148640000Y-85550000D02*
X148640000Y-85430000D01*
X148660000Y-86270000D02*
X148900000Y-86740000D01*
X148700000Y-84580000D02*
X148760000Y-84470000D01*
X148760000Y-84470000D02*
X148800000Y-84380000D01*
X148800000Y-84380000D02*
X148840000Y-84290000D01*
X148840000Y-84290000D02*
X148864074Y-84258491D01*
X148900000Y-86740000D02*
X149190000Y-87260000D01*
X149190000Y-87260000D02*
X149560000Y-87920000D01*
X149440000Y-85430000D02*
X149440000Y-85560000D01*
X149440000Y-85560000D02*
X149560000Y-85560000D01*
X149560000Y-85560000D02*
X149560000Y-85660000D01*
X149560000Y-85660000D02*
X149700000Y-85660000D01*
X149560000Y-87920000D02*
X149656426Y-88072681D01*
X149700000Y-85660000D02*
X149700000Y-85790000D01*
X149700000Y-85790000D02*
X149820000Y-85790000D01*
X149820000Y-85790000D02*
X149820000Y-85880000D01*
X149820000Y-85880000D02*
X150740000Y-85880000D01*
X150030003Y-88320000D02*
X151190606Y-88320000D01*
X150390000Y-83600000D02*
X149957583Y-83587617D01*
X150430000Y-83550000D02*
X150390000Y-83600000D01*
X150440000Y-83430000D02*
X150430000Y-83550000D01*
X150590000Y-83440000D02*
X150480000Y-83440000D01*
X150590000Y-83520000D02*
X150590000Y-83440000D01*
X150620000Y-83520000D02*
X150590000Y-83520000D01*
X150620000Y-83526001D02*
X151710000Y-83990000D01*
X150740000Y-85790000D02*
X150860000Y-85790000D01*
X150740000Y-85880000D02*
X150740000Y-85790000D01*
X150770000Y-83450000D02*
X150620000Y-83520000D01*
X150850000Y-83450000D02*
X150770000Y-83450000D01*
X150850000Y-83710000D02*
X150615263Y-83522211D01*
X150860000Y-85680000D02*
X150970000Y-85680000D01*
X150860000Y-85790000D02*
X150860000Y-85680000D01*
X150970000Y-85450000D02*
X151050000Y-85450000D01*
X150970000Y-85680000D02*
X150970000Y-85450000D01*
X150990000Y-83500000D02*
X150850000Y-83450000D01*
X151050000Y-85450000D02*
X151050000Y-85550000D01*
X151050000Y-85550000D02*
X151160000Y-85550000D01*
X151160000Y-85550000D02*
X151160000Y-85670000D01*
X151160000Y-85670000D02*
X151280000Y-85670000D01*
X151280000Y-85670000D02*
X151280000Y-85790000D01*
X151280000Y-85790000D02*
X152170000Y-85790000D01*
X151300000Y-84070000D02*
X150850000Y-83710000D01*
X151300000Y-84070000D02*
X151710000Y-83990000D01*
X151380000Y-83550000D02*
X150990000Y-83500000D01*
X151670000Y-84530000D02*
X151300000Y-84070000D01*
X151670000Y-84530000D02*
X152100000Y-84420000D01*
X151680000Y-83650000D02*
X151380000Y-83550000D01*
X151710000Y-83990000D02*
X151845000Y-83735000D01*
X151710000Y-83990000D02*
X152240000Y-84620000D01*
X151959109Y-87540745D02*
X151742514Y-87953306D01*
X151979919Y-87498745D02*
X152096575Y-87248769D01*
X152010000Y-83820000D02*
X151680000Y-83650000D01*
X152050000Y-85020000D02*
X151670000Y-84530000D01*
X152050000Y-85020000D02*
X152420000Y-84935000D01*
X152100000Y-84420000D02*
X152290000Y-84050000D01*
X152121580Y-87190407D02*
X152186431Y-87024677D01*
X152150000Y-85270000D02*
X148500000Y-85280000D01*
X152170000Y-85670000D02*
X152250000Y-85670000D01*
X152170000Y-85790000D02*
X152170000Y-85670000D01*
X152210948Y-86954418D02*
X152260363Y-86793821D01*
X152240000Y-84620000D02*
X152600000Y-85250000D01*
X152290000Y-84050000D02*
X152010000Y-83820000D01*
X152290978Y-86664134D02*
X152299467Y-86613199D01*
X152300000Y-85380000D02*
X152640000Y-85380000D01*
X152300000Y-85410000D02*
X152050000Y-85020000D01*
X152300512Y-86606799D02*
X152327441Y-86438496D01*
X152340000Y-85860000D02*
X152300000Y-85410000D01*
X152340000Y-86090000D02*
X152340000Y-85860000D01*
X152340000Y-86280506D02*
X152340000Y-86090000D01*
X152420000Y-84935000D02*
X152585000Y-84470000D01*
X152480000Y-84300000D02*
X152290000Y-84050000D01*
X152600000Y-85250000D02*
X152930000Y-86230000D01*
X152640000Y-85380000D02*
X152780000Y-84900000D01*
X152690000Y-84640000D02*
X152480000Y-84300000D01*
X152870000Y-85160000D02*
X152690000Y-84640000D01*
X152930000Y-85590000D02*
X152870000Y-85160000D01*
X152930000Y-86230000D02*
X152300000Y-85410000D01*
X152930000Y-86230000D02*
X152930000Y-85590000D01*
X148864074Y-84258489D02*
G75*
G02*
X149957583Y-83587618I955926J-331507D01*
G01*
X150030003Y-88320000D02*
G75*
G02*
X149656426Y-88072681I399982J1009981D01*
G01*
X151742514Y-87953306D02*
G75*
G02*
X151190606Y-88319999I-632504J353296D01*
G01*
X151979919Y-87498745D02*
G75*
G02*
X151959111Y-87540746I-908119J423745D01*
G01*
X152121580Y-87190407D02*
G75*
G02*
X152096573Y-87248768I-930580J364207D01*
G01*
X152210948Y-86954418D02*
G75*
G02*
X152186434Y-87024678I-955648J294018D01*
G01*
X152290978Y-86664134D02*
G75*
G02*
X152260363Y-86793821I-987378J164634D01*
G01*
X152300512Y-86606799D02*
G75*
G02*
X152299467Y-86613199I-928712J148399D01*
G01*
X152340000Y-86280506D02*
G75*
G02*
X152327441Y-86438496I-1000100J6D01*
G01*
X149804142Y-85450000D02*
G75*
G02*
X149775858Y-85450000I-14142J0D01*
G01*
X149775858Y-85450000D02*
G75*
G02*
X149804142Y-85450000I14142J0D01*
G01*
X149920000Y-85570000D02*
G75*
G02*
X149900000Y-85570000I-10000J0D01*
G01*
X149900000Y-85570000D02*
G75*
G02*
X149920000Y-85570000I10000J0D01*
G01*
X150040000Y-85450000D02*
G75*
G02*
X150020000Y-85450000I-10000J0D01*
G01*
X150020000Y-85450000D02*
G75*
G02*
X150040000Y-85450000I10000J0D01*
G01*
X150040000Y-85700000D02*
G75*
G02*
X150020000Y-85700000I-10000J0D01*
G01*
X150020000Y-85700000D02*
G75*
G02*
X150040000Y-85700000I10000J0D01*
G01*
X150160000Y-85580000D02*
G75*
G02*
X150140000Y-85580000I-10000J0D01*
G01*
X150140000Y-85580000D02*
G75*
G02*
X150160000Y-85580000I10000J0D01*
G01*
X150300000Y-85680000D02*
G75*
G02*
X150280000Y-85680000I-10000J0D01*
G01*
X150280000Y-85680000D02*
G75*
G02*
X150300000Y-85680000I10000J0D01*
G01*
X151384142Y-85450000D02*
G75*
G02*
X151355858Y-85450000I-14142J0D01*
G01*
X151355858Y-85450000D02*
G75*
G02*
X151384142Y-85450000I14142J0D01*
G01*
X151510000Y-85580000D02*
G75*
G02*
X151490000Y-85580000I-10000J0D01*
G01*
X151490000Y-85580000D02*
G75*
G02*
X151510000Y-85580000I10000J0D01*
G01*
X151630000Y-85450000D02*
G75*
G02*
X151610000Y-85450000I-10000J0D01*
G01*
X151610000Y-85450000D02*
G75*
G02*
X151630000Y-85450000I10000J0D01*
G01*
X151750000Y-85580000D02*
G75*
G02*
X151730000Y-85580000I-10000J0D01*
G01*
X151730000Y-85580000D02*
G75*
G02*
X151750000Y-85580000I10000J0D01*
G01*
X142560000Y-94590000D02*
X142700000Y-94480000D01*
X142560000Y-94750000D02*
X142560000Y-94590000D01*
X142670000Y-94750000D02*
X142560000Y-94750000D01*
X142670000Y-94750000D02*
X142840000Y-94750000D01*
X142700000Y-94210000D02*
X142700000Y-94480000D01*
X142700000Y-94820000D02*
X142670000Y-94750000D01*
X142700000Y-94820000D02*
X142760000Y-95170000D01*
X142760000Y-95170000D02*
X142860000Y-95470000D01*
X142780000Y-94000000D02*
X142700000Y-94210000D01*
X142780000Y-94000000D02*
X142830000Y-93900000D01*
X142830000Y-93900000D02*
X142900000Y-93780000D01*
X142840000Y-94630000D02*
X143640000Y-94630000D01*
X142840000Y-94750000D02*
X142840000Y-94630000D01*
X142860000Y-95470000D02*
X143100000Y-95940000D01*
X142900000Y-93780000D02*
X142960000Y-93670000D01*
X142960000Y-93670000D02*
X143000000Y-93580000D01*
X143000000Y-93580000D02*
X143040000Y-93490000D01*
X143040000Y-93490000D02*
X143064074Y-93458491D01*
X143100000Y-95940000D02*
X143390000Y-96460000D01*
X143390000Y-96460000D02*
X143760000Y-97120000D01*
X143640000Y-94630000D02*
X143640000Y-94760000D01*
X143640000Y-94760000D02*
X143760000Y-94760000D01*
X143760000Y-94760000D02*
X143760000Y-94860000D01*
X143760000Y-94860000D02*
X143900000Y-94860000D01*
X143760000Y-97120000D02*
X143856426Y-97272681D01*
X143900000Y-94860000D02*
X143900000Y-94990000D01*
X143900000Y-94990000D02*
X144020000Y-94990000D01*
X144020000Y-94990000D02*
X144020000Y-95080000D01*
X144020000Y-95080000D02*
X144940000Y-95080000D01*
X144230003Y-97520000D02*
X145390606Y-97520000D01*
X144590000Y-92800000D02*
X144157583Y-92787617D01*
X144630000Y-92750000D02*
X144590000Y-92800000D01*
X144640000Y-92630000D02*
X144630000Y-92750000D01*
X144790000Y-92640000D02*
X144680000Y-92640000D01*
X144790000Y-92720000D02*
X144790000Y-92640000D01*
X144820000Y-92720000D02*
X144790000Y-92720000D01*
X144820000Y-92726001D02*
X145910000Y-93190000D01*
X144940000Y-94990000D02*
X145060000Y-94990000D01*
X144940000Y-95080000D02*
X144940000Y-94990000D01*
X144970000Y-92650000D02*
X144820000Y-92720000D01*
X145050000Y-92650000D02*
X144970000Y-92650000D01*
X145050000Y-92910000D02*
X144815263Y-92722211D01*
X145060000Y-94880000D02*
X145170000Y-94880000D01*
X145060000Y-94990000D02*
X145060000Y-94880000D01*
X145170000Y-94650000D02*
X145250000Y-94650000D01*
X145170000Y-94880000D02*
X145170000Y-94650000D01*
X145190000Y-92700000D02*
X145050000Y-92650000D01*
X145250000Y-94650000D02*
X145250000Y-94750000D01*
X145250000Y-94750000D02*
X145360000Y-94750000D01*
X145360000Y-94750000D02*
X145360000Y-94870000D01*
X145360000Y-94870000D02*
X145480000Y-94870000D01*
X145480000Y-94870000D02*
X145480000Y-94990000D01*
X145480000Y-94990000D02*
X146370000Y-94990000D01*
X145500000Y-93270000D02*
X145050000Y-92910000D01*
X145500000Y-93270000D02*
X145910000Y-93190000D01*
X145580000Y-92750000D02*
X145190000Y-92700000D01*
X145870000Y-93730000D02*
X145500000Y-93270000D01*
X145870000Y-93730000D02*
X146300000Y-93620000D01*
X145880000Y-92850000D02*
X145580000Y-92750000D01*
X145910000Y-93190000D02*
X146045000Y-92935000D01*
X145910000Y-93190000D02*
X146440000Y-93820000D01*
X146159109Y-96740745D02*
X145942514Y-97153306D01*
X146179919Y-96698745D02*
X146296575Y-96448769D01*
X146210000Y-93020000D02*
X145880000Y-92850000D01*
X146250000Y-94220000D02*
X145870000Y-93730000D01*
X146250000Y-94220000D02*
X146620000Y-94135000D01*
X146300000Y-93620000D02*
X146490000Y-93250000D01*
X146321580Y-96390407D02*
X146386431Y-96224677D01*
X146350000Y-94470000D02*
X142700000Y-94480000D01*
X146370000Y-94870000D02*
X146450000Y-94870000D01*
X146370000Y-94990000D02*
X146370000Y-94870000D01*
X146410948Y-96154418D02*
X146460363Y-95993821D01*
X146440000Y-93820000D02*
X146800000Y-94450000D01*
X146490000Y-93250000D02*
X146210000Y-93020000D01*
X146490978Y-95864134D02*
X146499467Y-95813199D01*
X146500000Y-94580000D02*
X146840000Y-94580000D01*
X146500000Y-94610000D02*
X146250000Y-94220000D01*
X146500512Y-95806799D02*
X146527441Y-95638496D01*
X146540000Y-95060000D02*
X146500000Y-94610000D01*
X146540000Y-95290000D02*
X146540000Y-95060000D01*
X146540000Y-95480506D02*
X146540000Y-95290000D01*
X146620000Y-94135000D02*
X146785000Y-93670000D01*
X146680000Y-93500000D02*
X146490000Y-93250000D01*
X146800000Y-94450000D02*
X147130000Y-95430000D01*
X146840000Y-94580000D02*
X146980000Y-94100000D01*
X146890000Y-93840000D02*
X146680000Y-93500000D01*
X147070000Y-94360000D02*
X146890000Y-93840000D01*
X147130000Y-94790000D02*
X147070000Y-94360000D01*
X147130000Y-95430000D02*
X146500000Y-94610000D01*
X147130000Y-95430000D02*
X147130000Y-94790000D01*
X143064074Y-93458489D02*
G75*
G02*
X144157583Y-92787618I955926J-331507D01*
G01*
X144230003Y-97520000D02*
G75*
G02*
X143856426Y-97272681I399982J1009981D01*
G01*
X145942514Y-97153306D02*
G75*
G02*
X145390606Y-97519999I-632504J353296D01*
G01*
X146179919Y-96698745D02*
G75*
G02*
X146159111Y-96740746I-908119J423745D01*
G01*
X146321580Y-96390407D02*
G75*
G02*
X146296573Y-96448768I-930580J364207D01*
G01*
X146410948Y-96154418D02*
G75*
G02*
X146386434Y-96224678I-955648J294018D01*
G01*
X146490978Y-95864134D02*
G75*
G02*
X146460363Y-95993821I-987378J164634D01*
G01*
X146500512Y-95806799D02*
G75*
G02*
X146499467Y-95813199I-928712J148399D01*
G01*
X146540000Y-95480506D02*
G75*
G02*
X146527441Y-95638496I-1000100J6D01*
G01*
X144004142Y-94650000D02*
G75*
G02*
X143975858Y-94650000I-14142J0D01*
G01*
X143975858Y-94650000D02*
G75*
G02*
X144004142Y-94650000I14142J0D01*
G01*
X144120000Y-94770000D02*
G75*
G02*
X144100000Y-94770000I-10000J0D01*
G01*
X144100000Y-94770000D02*
G75*
G02*
X144120000Y-94770000I10000J0D01*
G01*
X144240000Y-94650000D02*
G75*
G02*
X144220000Y-94650000I-10000J0D01*
G01*
X144220000Y-94650000D02*
G75*
G02*
X144240000Y-94650000I10000J0D01*
G01*
X144240000Y-94900000D02*
G75*
G02*
X144220000Y-94900000I-10000J0D01*
G01*
X144220000Y-94900000D02*
G75*
G02*
X144240000Y-94900000I10000J0D01*
G01*
X144360000Y-94780000D02*
G75*
G02*
X144340000Y-94780000I-10000J0D01*
G01*
X144340000Y-94780000D02*
G75*
G02*
X144360000Y-94780000I10000J0D01*
G01*
X144500000Y-94880000D02*
G75*
G02*
X144480000Y-94880000I-10000J0D01*
G01*
X144480000Y-94880000D02*
G75*
G02*
X144500000Y-94880000I10000J0D01*
G01*
X145584142Y-94650000D02*
G75*
G02*
X145555858Y-94650000I-14142J0D01*
G01*
X145555858Y-94650000D02*
G75*
G02*
X145584142Y-94650000I14142J0D01*
G01*
X145710000Y-94780000D02*
G75*
G02*
X145690000Y-94780000I-10000J0D01*
G01*
X145690000Y-94780000D02*
G75*
G02*
X145710000Y-94780000I10000J0D01*
G01*
X145830000Y-94650000D02*
G75*
G02*
X145810000Y-94650000I-10000J0D01*
G01*
X145810000Y-94650000D02*
G75*
G02*
X145830000Y-94650000I10000J0D01*
G01*
X145950000Y-94780000D02*
G75*
G02*
X145930000Y-94780000I-10000J0D01*
G01*
X145930000Y-94780000D02*
G75*
G02*
X145950000Y-94780000I10000J0D01*
G01*
%TO.C,R2*%
D12*
X127520000Y-98030000D02*
X134060000Y-98030000D01*
X127520000Y-98360000D02*
X127520000Y-98030000D01*
X127520000Y-100440000D02*
X127520000Y-100770000D01*
X127520000Y-100770000D02*
X134060000Y-100770000D01*
X134060000Y-98030000D02*
X134060000Y-98360000D01*
X134060000Y-100770000D02*
X134060000Y-100440000D01*
%TO.C,R1*%
X138530000Y-98030000D02*
X145070000Y-98030000D01*
X138530000Y-98360000D02*
X138530000Y-98030000D01*
X138530000Y-100440000D02*
X138530000Y-100770000D01*
X138530000Y-100770000D02*
X145070000Y-100770000D01*
X145070000Y-98030000D02*
X145070000Y-98360000D01*
X145070000Y-100770000D02*
X145070000Y-100440000D01*
%TO.C,Q1*%
X126690000Y-82890000D02*
X136910000Y-82890000D01*
X126690000Y-84270000D02*
X136910000Y-84270000D01*
X126690000Y-87510000D02*
X126690000Y-82890000D01*
X129950000Y-82890000D02*
X129950000Y-84270000D01*
X133650000Y-82890000D02*
X133650000Y-84270000D01*
X136910000Y-82890000D02*
X136910000Y-87510000D01*
X136910000Y-87510000D02*
X126690000Y-87510000D01*
%TO.C,J9*%
X126540000Y-96580000D02*
X126540000Y-95200000D01*
X127920000Y-96580000D02*
X126540000Y-96580000D01*
X129190000Y-96580000D02*
X134380000Y-96580000D01*
X129190000Y-96580000D02*
X129190000Y-93820000D01*
X134380000Y-96580000D02*
X134380000Y-93820000D01*
X129190000Y-93820000D02*
X134380000Y-93820000D01*
%TO.C,J8*%
X134475000Y-89600000D02*
X137275000Y-89600000D01*
X134475000Y-91600000D02*
X134475000Y-89600000D01*
X137275000Y-89600000D02*
X137275000Y-91600000D01*
X137275000Y-91600000D02*
X134475000Y-91600000D01*
%TO.C,J7*%
X125875000Y-89600000D02*
X128675000Y-89600000D01*
X125875000Y-91600000D02*
X125875000Y-89600000D01*
X128675000Y-89600000D02*
X128675000Y-91600000D01*
X128675000Y-91600000D02*
X125875000Y-91600000D01*
%TO.C,J6*%
X151780000Y-123180000D02*
X150400000Y-123180000D01*
X151780000Y-121800000D02*
X151780000Y-123180000D01*
X151780000Y-120530000D02*
X151780000Y-115340000D01*
X151780000Y-120530000D02*
X149020000Y-120530000D01*
X151780000Y-115340000D02*
X149020000Y-115340000D01*
X149020000Y-120530000D02*
X149020000Y-115340000D01*
%TO.C,J5*%
X123980000Y-94800000D02*
X122600000Y-94800000D01*
X123980000Y-93420000D02*
X123980000Y-94800000D01*
X123980000Y-92150000D02*
X123980000Y-84420000D01*
X123980000Y-92150000D02*
X121220000Y-92150000D01*
X123980000Y-84420000D02*
X121220000Y-84420000D01*
X121220000Y-92150000D02*
X121220000Y-84420000D01*
%TO.C,J4*%
X151780000Y-99920000D02*
X150400000Y-99920000D01*
X151780000Y-98540000D02*
X151780000Y-99920000D01*
X151780000Y-97270000D02*
X151780000Y-89540000D01*
X151780000Y-97270000D02*
X149020000Y-97270000D01*
X151780000Y-89540000D02*
X149020000Y-89540000D01*
X149020000Y-97270000D02*
X149020000Y-89540000D01*
%TO.C,J3*%
X120820000Y-110020000D02*
X122200000Y-110020000D01*
X120820000Y-111400000D02*
X120820000Y-110020000D01*
X120820000Y-112670000D02*
X120820000Y-122940000D01*
X120820000Y-112670000D02*
X123580000Y-112670000D01*
X120820000Y-122940000D02*
X123580000Y-122940000D01*
X123580000Y-112670000D02*
X123580000Y-122940000D01*
%TO.C,J2*%
X151780000Y-113190000D02*
X150400000Y-113190000D01*
X151780000Y-111810000D02*
X151780000Y-113190000D01*
X151780000Y-110540000D02*
X151780000Y-102810000D01*
X151780000Y-110540000D02*
X149020000Y-110540000D01*
X151780000Y-102810000D02*
X149020000Y-102810000D01*
X149020000Y-110540000D02*
X149020000Y-102810000D01*
%TO.C,J1*%
X121020000Y-98540000D02*
X122400000Y-98540000D01*
X121020000Y-99920000D02*
X121020000Y-98540000D01*
X121020000Y-101190000D02*
X121020000Y-106380000D01*
X121020000Y-101190000D02*
X123780000Y-101190000D01*
X121020000Y-106380000D02*
X123780000Y-106380000D01*
X123780000Y-101190000D02*
X123780000Y-106380000D01*
%TO.C,U2*%
X139390000Y-89600000D02*
X139390000Y-85840000D01*
X146210000Y-89600000D02*
X146210000Y-85840000D01*
X139390000Y-85840000D02*
X140650000Y-85840000D01*
X146210000Y-85840000D02*
X144950000Y-85840000D01*
X139490000Y-90880000D02*
X139160000Y-91120000D01*
X139160000Y-90640000D01*
X139490000Y-90880000D01*
G36*
X139490000Y-90880000D02*
G01*
X139160000Y-91120000D01*
X139160000Y-90640000D01*
X139490000Y-90880000D01*
G37*
%TO.C,U1*%
X145370000Y-131380000D02*
X145370000Y-125220000D01*
X145370000Y-131380000D02*
X127130000Y-131380000D01*
X145370000Y-106420000D02*
X145370000Y-105640000D01*
X145370000Y-105640000D02*
X144370000Y-105640000D01*
X127130000Y-131380000D02*
X127130000Y-124965000D01*
X127130000Y-106420000D02*
X127130000Y-105640000D01*
X127130000Y-105640000D02*
X128130000Y-105640000D01*
X145375000Y-124995000D02*
X145375000Y-124495000D01*
X145875000Y-124495000D01*
X145375000Y-124995000D01*
G36*
X145375000Y-124995000D02*
G01*
X145375000Y-124495000D01*
X145875000Y-124495000D01*
X145375000Y-124995000D01*
G37*
%TD*%
M02*
