%TF.GenerationSoftware,KiCad,Pcbnew,10.0.1*%
%TF.CreationDate,2026-05-07T15:33:40+05:30*%
%TF.ProjectId,weather station rev 1.2,77656174-6865-4722-9073-746174696f6e,rev?*%
%TF.SameCoordinates,Original*%
%TF.FileFunction,Copper,L2,Bot*%
%TF.FilePolarity,Positive*%
%FSLAX46Y46*%
G04 Gerber Fmt 4.6, Leading zero omitted, Abs format (unit mm)*
G04 Created by KiCad (PCBNEW 10.0.1) date 2026-05-07 15:33:40*
%MOMM*%
%LPD*%
G01*
G04 APERTURE LIST*
%TA.AperFunction,ComponentPad*%
%ADD10C,1.600000*%
%TD*%
%TA.AperFunction,ComponentPad*%
%ADD11R,1.905000X2.000000*%
%TD*%
%TA.AperFunction,ComponentPad*%
%ADD12O,1.905000X2.000000*%
%TD*%
%TA.AperFunction,ComponentPad*%
%ADD13R,1.700000X1.700000*%
%TD*%
%TA.AperFunction,ComponentPad*%
%ADD14C,1.700000*%
%TD*%
%TA.AperFunction,HeatsinkPad*%
%ADD15C,0.600000*%
%TD*%
%TA.AperFunction,ViaPad*%
%ADD16C,0.600000*%
%TD*%
%TA.AperFunction,ViaPad*%
%ADD17C,0.800000*%
%TD*%
%TA.AperFunction,Conductor*%
%ADD18C,0.200000*%
%TD*%
%TA.AperFunction,Conductor*%
%ADD19C,0.300000*%
%TD*%
G04 APERTURE END LIST*
D10*
%TO.P,R2,1*%
%TO.N,Net-(J7-Pin_2)*%
X126980000Y-99400000D03*
%TO.P,R2,2*%
%TO.N,+3.3V*%
X134600000Y-99400000D03*
%TD*%
%TO.P,R1,1*%
%TO.N,+3.3V*%
X137990000Y-99400000D03*
%TO.P,R1,2*%
%TO.N,Net-(J8-Pin_1)*%
X145610000Y-99400000D03*
%TD*%
D11*
%TO.P,Q1,1,G_1*%
%TO.N,Net-(Q1-G)*%
X129260000Y-86150000D03*
D12*
%TO.P,Q1,2,D_2*%
%TO.N,Net-(J5-Pin_3)*%
X131800000Y-86150000D03*
%TO.P,Q1,3,S_3*%
%TO.N,GND*%
X134340000Y-86150000D03*
%TD*%
D13*
%TO.P,J9,1,Pin_1_1*%
%TO.N,Net-(J9-Pin_1)*%
X127920000Y-95200000D03*
D14*
%TO.P,J9,2,Pin_2_2*%
%TO.N,Net-(J9-Pin_2)*%
X130460000Y-95200000D03*
%TO.P,J9,3,Pin_3_3*%
%TO.N,GND*%
X133000000Y-95200000D03*
%TD*%
D13*
%TO.P,J6,1,Pin_1_1*%
%TO.N,+3.3V*%
X150400000Y-121800000D03*
D14*
%TO.P,J6,2,Pin_2_2*%
%TO.N,GND*%
X150400000Y-119260000D03*
%TO.P,J6,3,Pin_3_3*%
%TO.N,Net-(J6-Pin_3)*%
X150400000Y-116720000D03*
%TD*%
D13*
%TO.P,J5,1,Pin_1_1*%
%TO.N,Net-(J5-Pin_1)*%
X122600000Y-93420000D03*
D14*
%TO.P,J5,2,Pin_2_2*%
%TO.N,Net-(J5-Pin_2)*%
X122600000Y-90880000D03*
%TO.P,J5,3,Pin_3_3*%
%TO.N,Net-(J5-Pin_3)*%
X122600000Y-88340000D03*
%TO.P,J5,4,Pin_4_4*%
%TO.N,+5V*%
X122600000Y-85800000D03*
%TD*%
D13*
%TO.P,J4,1,Pin_1_1*%
%TO.N,GND*%
X150400000Y-98540000D03*
D14*
%TO.P,J4,2,Pin_2_2*%
X150400000Y-96000000D03*
%TO.P,J4,3,Pin_3_3*%
%TO.N,+5V*%
X150400000Y-93460000D03*
%TO.P,J4,4,Pin_4_4*%
X150400000Y-90920000D03*
%TD*%
D13*
%TO.P,J3,1,Pin_1_1*%
%TO.N,GND*%
X122200000Y-111400000D03*
D14*
%TO.P,J3,2,Pin_2_2*%
%TO.N,Net-(J3-Pin_2)*%
X122200000Y-113940000D03*
%TO.P,J3,3,Pin_3_3*%
%TO.N,Net-(J3-Pin_3)*%
X122200000Y-116480000D03*
%TO.P,J3,4,Pin_4_4*%
%TO.N,GND*%
X122200000Y-119020000D03*
%TO.P,J3,5,Pin_5_5*%
%TO.N,+3.3V*%
X122200000Y-121560000D03*
%TD*%
D13*
%TO.P,J2,1,Pin_1_1*%
%TO.N,Net-(J2-Pin_1)*%
X150400000Y-111810000D03*
D14*
%TO.P,J2,2,Pin_2_2*%
%TO.N,Net-(J2-Pin_2)*%
X150400000Y-109270000D03*
%TO.P,J2,3,Pin_3_3*%
%TO.N,GND*%
X150400000Y-106730000D03*
%TO.P,J2,4,Pin_4_4*%
%TO.N,+3.3V*%
X150400000Y-104190000D03*
%TD*%
D13*
%TO.P,J1,1,Pin_1_1*%
%TO.N,+3.3V*%
X122400000Y-99920000D03*
D14*
%TO.P,J1,2,Pin_2_2*%
%TO.N,Net-(J1-Pin_2)*%
X122400000Y-102460000D03*
%TO.P,J1,3,Pin_3_3*%
%TO.N,GND*%
X122400000Y-105000000D03*
%TD*%
D15*
%TO.P,U1,39,GND_39*%
%TO.N,GND*%
X139150000Y-116750000D03*
X139150000Y-115350000D03*
X138450000Y-117450000D03*
X138450000Y-116050000D03*
X138450000Y-114650000D03*
X137775000Y-116750000D03*
X137775000Y-115350000D03*
X137050000Y-117450000D03*
X137050000Y-116050000D03*
X137050000Y-114650000D03*
X136350000Y-116750000D03*
X136350000Y-115350000D03*
%TD*%
D16*
%TO.N,GND*%
X138000000Y-90600000D03*
X125000000Y-90600000D03*
%TO.N,Net-(Q1-G)*%
X146800000Y-105600000D03*
D17*
%TO.N,GND*%
X140600000Y-93600000D03*
D16*
%TO.N,Net-(J9-Pin_2)*%
X125858528Y-119290000D03*
%TO.N,Net-(J9-Pin_1)*%
X124600000Y-117600000D03*
%TO.N,Net-(J8-Pin_1)*%
X147600000Y-119400000D03*
%TD*%
%TO.N,Net-(Q1-G)*%
D18*
X141300000Y-84700000D02*
X141300000Y-100100000D01*
X141300000Y-100100000D02*
X146800000Y-105600000D01*
X140400000Y-83800000D02*
X141300000Y-84700000D01*
X131610000Y-83800000D02*
X140400000Y-83800000D01*
X129260000Y-86150000D02*
X131610000Y-83800000D01*
%TO.N,Net-(J5-Pin_3)*%
D19*
X131800000Y-86150000D02*
X129610000Y-88340000D01*
X129610000Y-88340000D02*
X122600000Y-88340000D01*
%TO.N,Net-(J9-Pin_2)*%
D18*
X125600000Y-119031472D02*
X125858528Y-119290000D01*
X125600000Y-104400000D02*
X125600000Y-119031472D01*
X130460000Y-99540000D02*
X125600000Y-104400000D01*
X130460000Y-95200000D02*
X130460000Y-99540000D01*
%TO.N,Net-(J9-Pin_1)*%
X124600000Y-99400000D02*
X124600000Y-117600000D01*
X127920000Y-95200000D02*
X127920000Y-96080000D01*
X127920000Y-96080000D02*
X124600000Y-99400000D01*
%TO.N,Net-(J8-Pin_1)*%
X147600000Y-100200000D02*
X147600000Y-119400000D01*
X145610000Y-99400000D02*
X146800000Y-99400000D01*
X146800000Y-99400000D02*
X147600000Y-100200000D01*
%TD*%
%TA.AperFunction,Conductor*%
%TO.N,GND*%
G36*
X153442539Y-82520185D02*
G01*
X153488294Y-82572989D01*
X153499500Y-82624500D01*
X153499500Y-124676000D01*
X153479815Y-124743039D01*
X153427011Y-124788794D01*
X153375500Y-124800000D01*
X118624500Y-124800000D01*
X118557461Y-124780315D01*
X118511706Y-124727511D01*
X118500500Y-124676000D01*
X118500500Y-110502155D01*
X120850000Y-110502155D01*
X120850000Y-111150000D01*
X121766988Y-111150000D01*
X121734075Y-111207007D01*
X121700000Y-111334174D01*
X121700000Y-111465826D01*
X121734075Y-111592993D01*
X121766988Y-111650000D01*
X120850000Y-111650000D01*
X120850000Y-112297844D01*
X120856401Y-112357372D01*
X120856403Y-112357379D01*
X120906645Y-112492086D01*
X120906649Y-112492093D01*
X120992809Y-112607187D01*
X120992812Y-112607190D01*
X121107906Y-112693350D01*
X121107913Y-112693354D01*
X121242620Y-112743596D01*
X121242627Y-112743598D01*
X121302155Y-112749999D01*
X121302172Y-112750000D01*
X121328784Y-112750000D01*
X121395823Y-112769685D01*
X121441578Y-112822489D01*
X121451522Y-112891647D01*
X121422497Y-112955203D01*
X121401671Y-112974317D01*
X121385354Y-112986171D01*
X121246174Y-113125351D01*
X121246174Y-113125352D01*
X121246172Y-113125354D01*
X121196485Y-113193741D01*
X121130476Y-113284594D01*
X121041117Y-113459970D01*
X120980290Y-113647173D01*
X120949500Y-113841577D01*
X120949500Y-114038422D01*
X120980290Y-114232826D01*
X121041117Y-114420029D01*
X121130476Y-114595405D01*
X121246172Y-114754646D01*
X121385354Y-114893828D01*
X121544595Y-115009524D01*
X121667992Y-115072397D01*
X121721213Y-115099515D01*
X121772009Y-115147489D01*
X121788804Y-115215310D01*
X121766267Y-115281445D01*
X121721213Y-115320485D01*
X121544594Y-115410476D01*
X121463356Y-115469500D01*
X121385354Y-115526172D01*
X121385352Y-115526174D01*
X121385351Y-115526174D01*
X121246174Y-115665351D01*
X121246174Y-115665352D01*
X121246172Y-115665354D01*
X121196485Y-115733741D01*
X121130476Y-115824594D01*
X121041117Y-115999970D01*
X120980290Y-116187173D01*
X120949500Y-116381577D01*
X120949500Y-116578422D01*
X120980290Y-116772826D01*
X121041117Y-116960029D01*
X121117452Y-117109844D01*
X121130476Y-117135405D01*
X121246172Y-117294646D01*
X121385354Y-117433828D01*
X121504784Y-117520600D01*
X121544596Y-117549525D01*
X121611628Y-117583679D01*
X121662425Y-117631653D01*
X121679220Y-117699474D01*
X121656683Y-117765609D01*
X121611630Y-117804648D01*
X121492443Y-117865378D01*
X121492440Y-117865380D01*
X121438282Y-117904727D01*
X121438282Y-117904728D01*
X122070591Y-118537037D01*
X122007007Y-118554075D01*
X121892993Y-118619901D01*
X121799901Y-118712993D01*
X121734075Y-118827007D01*
X121717037Y-118890591D01*
X121084728Y-118258282D01*
X121084727Y-118258282D01*
X121045380Y-118312439D01*
X120948904Y-118501782D01*
X120883242Y-118703869D01*
X120883242Y-118703872D01*
X120850000Y-118913753D01*
X120850000Y-119126246D01*
X120883242Y-119336127D01*
X120883242Y-119336130D01*
X120948904Y-119538217D01*
X121045375Y-119727550D01*
X121084728Y-119781716D01*
X121717037Y-119149408D01*
X121734075Y-119212993D01*
X121799901Y-119327007D01*
X121892993Y-119420099D01*
X122007007Y-119485925D01*
X122070590Y-119502962D01*
X121438282Y-120135269D01*
X121438282Y-120135270D01*
X121492449Y-120174624D01*
X121611629Y-120235350D01*
X121662425Y-120283325D01*
X121679220Y-120351146D01*
X121656682Y-120417281D01*
X121611630Y-120456319D01*
X121544597Y-120490474D01*
X121490450Y-120529815D01*
X121385354Y-120606172D01*
X121385352Y-120606174D01*
X121385351Y-120606174D01*
X121246174Y-120745351D01*
X121246174Y-120745352D01*
X121246172Y-120745354D01*
X121196485Y-120813741D01*
X121130476Y-120904594D01*
X121041117Y-121079970D01*
X120980290Y-121267173D01*
X120949500Y-121461577D01*
X120949500Y-121658422D01*
X120980290Y-121852826D01*
X121041117Y-122040029D01*
X121130476Y-122215405D01*
X121246172Y-122374646D01*
X121385354Y-122513828D01*
X121544595Y-122629524D01*
X121627455Y-122671743D01*
X121719970Y-122718882D01*
X121719972Y-122718882D01*
X121719975Y-122718884D01*
X121820317Y-122751487D01*
X121907173Y-122779709D01*
X122101578Y-122810500D01*
X122101583Y-122810500D01*
X122298422Y-122810500D01*
X122492826Y-122779709D01*
X122506392Y-122775301D01*
X122680025Y-122718884D01*
X122855405Y-122629524D01*
X123014646Y-122513828D01*
X123153828Y-122374646D01*
X123269524Y-122215405D01*
X123358884Y-122040025D01*
X123419709Y-121852826D01*
X123450500Y-121658422D01*
X123450500Y-121461577D01*
X123419709Y-121267173D01*
X123358882Y-121079970D01*
X123302800Y-120969904D01*
X123302799Y-120969902D01*
X123269525Y-120904596D01*
X123252144Y-120880674D01*
X123153828Y-120745354D01*
X123014646Y-120606172D01*
X122855405Y-120490476D01*
X122788370Y-120456320D01*
X122737574Y-120408345D01*
X122720779Y-120340524D01*
X122743316Y-120274389D01*
X122788370Y-120235350D01*
X122907554Y-120174622D01*
X122961716Y-120135270D01*
X122961717Y-120135270D01*
X122329408Y-119502962D01*
X122392993Y-119485925D01*
X122507007Y-119420099D01*
X122600099Y-119327007D01*
X122665925Y-119212993D01*
X122682962Y-119149408D01*
X123315270Y-119781717D01*
X123315270Y-119781716D01*
X123354622Y-119727554D01*
X123451095Y-119538217D01*
X123516757Y-119336130D01*
X123516757Y-119336127D01*
X123550000Y-119126246D01*
X123550000Y-118913753D01*
X123516757Y-118703872D01*
X123516757Y-118703869D01*
X123451095Y-118501782D01*
X123354624Y-118312449D01*
X123315270Y-118258282D01*
X123315269Y-118258282D01*
X122682962Y-118890590D01*
X122665925Y-118827007D01*
X122600099Y-118712993D01*
X122507007Y-118619901D01*
X122392993Y-118554075D01*
X122329409Y-118537037D01*
X122961716Y-117904728D01*
X122907547Y-117865373D01*
X122907542Y-117865370D01*
X122788370Y-117804648D01*
X122737574Y-117756674D01*
X122720779Y-117688853D01*
X122727546Y-117668995D01*
X123899499Y-117668995D01*
X123926418Y-117804322D01*
X123926421Y-117804332D01*
X123979221Y-117931804D01*
X123979228Y-117931817D01*
X124055885Y-118046541D01*
X124055888Y-118046545D01*
X124153454Y-118144111D01*
X124153458Y-118144114D01*
X124268182Y-118220771D01*
X124268195Y-118220778D01*
X124358739Y-118258282D01*
X124395672Y-118273580D01*
X124395676Y-118273580D01*
X124395677Y-118273581D01*
X124531004Y-118300500D01*
X124531007Y-118300500D01*
X124668995Y-118300500D01*
X124760041Y-118282389D01*
X124804328Y-118273580D01*
X124928047Y-118222333D01*
X124997517Y-118214865D01*
X125059996Y-118246140D01*
X125095648Y-118306229D01*
X125099500Y-118336895D01*
X125099500Y-118965580D01*
X125099500Y-119097364D01*
X125133608Y-119224658D01*
X125141414Y-119238179D01*
X125158028Y-119300180D01*
X125158028Y-119358993D01*
X125158028Y-119358995D01*
X125158027Y-119358995D01*
X125184946Y-119494322D01*
X125184949Y-119494332D01*
X125237749Y-119621804D01*
X125237756Y-119621817D01*
X125314413Y-119736541D01*
X125314416Y-119736545D01*
X125411982Y-119834111D01*
X125411986Y-119834114D01*
X125526710Y-119910771D01*
X125526723Y-119910778D01*
X125654195Y-119963578D01*
X125654200Y-119963580D01*
X125654204Y-119963580D01*
X125654205Y-119963581D01*
X125789532Y-119990500D01*
X125789535Y-119990500D01*
X125927523Y-119990500D01*
X126042877Y-119967554D01*
X126062856Y-119963580D01*
X126190339Y-119910775D01*
X126305070Y-119834114D01*
X126402642Y-119736542D01*
X126479303Y-119621811D01*
X126532108Y-119494328D01*
X126556132Y-119373554D01*
X126559028Y-119358995D01*
X126559028Y-119221004D01*
X126532109Y-119085677D01*
X126532108Y-119085676D01*
X126532108Y-119085672D01*
X126524866Y-119068189D01*
X126479306Y-118958195D01*
X126479299Y-118958182D01*
X126402642Y-118843458D01*
X126402639Y-118843454D01*
X126305073Y-118745888D01*
X126305065Y-118745882D01*
X126190341Y-118669226D01*
X126190337Y-118669224D01*
X126177047Y-118663719D01*
X126122644Y-118619878D01*
X126100579Y-118553583D01*
X126100500Y-118549158D01*
X126100500Y-104658676D01*
X126120185Y-104591637D01*
X126136819Y-104570995D01*
X128346237Y-102361577D01*
X130860500Y-99847314D01*
X130926392Y-99733186D01*
X130960500Y-99605892D01*
X130960500Y-99474107D01*
X130960500Y-99305513D01*
X133399500Y-99305513D01*
X133399500Y-99494486D01*
X133429059Y-99681118D01*
X133487454Y-99860836D01*
X133561833Y-100006812D01*
X133573240Y-100029199D01*
X133684310Y-100182073D01*
X133817927Y-100315690D01*
X133970801Y-100426760D01*
X134033440Y-100458676D01*
X134139163Y-100512545D01*
X134139165Y-100512545D01*
X134139168Y-100512547D01*
X134235497Y-100543846D01*
X134318881Y-100570940D01*
X134505514Y-100600500D01*
X134505519Y-100600500D01*
X134694486Y-100600500D01*
X134881118Y-100570940D01*
X135060832Y-100512547D01*
X135229199Y-100426760D01*
X135382073Y-100315690D01*
X135515690Y-100182073D01*
X135626760Y-100029199D01*
X135712547Y-99860832D01*
X135770940Y-99681118D01*
X135778706Y-99632086D01*
X135800500Y-99494486D01*
X135800500Y-99305513D01*
X136789500Y-99305513D01*
X136789500Y-99494486D01*
X136819059Y-99681118D01*
X136877454Y-99860836D01*
X136951833Y-100006812D01*
X136963240Y-100029199D01*
X137074310Y-100182073D01*
X137207927Y-100315690D01*
X137360801Y-100426760D01*
X137423440Y-100458676D01*
X137529163Y-100512545D01*
X137529165Y-100512545D01*
X137529168Y-100512547D01*
X137625497Y-100543846D01*
X137708881Y-100570940D01*
X137895514Y-100600500D01*
X137895519Y-100600500D01*
X138084486Y-100600500D01*
X138271118Y-100570940D01*
X138450832Y-100512547D01*
X138619199Y-100426760D01*
X138772073Y-100315690D01*
X138905690Y-100182073D01*
X139016760Y-100029199D01*
X139102547Y-99860832D01*
X139160940Y-99681118D01*
X139168706Y-99632086D01*
X139190500Y-99494486D01*
X139190500Y-99305513D01*
X139160940Y-99118881D01*
X139122150Y-98999500D01*
X139102547Y-98939168D01*
X139102545Y-98939165D01*
X139102545Y-98939163D01*
X139047768Y-98831658D01*
X139016760Y-98770801D01*
X138905690Y-98617927D01*
X138772073Y-98484310D01*
X138619199Y-98373240D01*
X138567714Y-98347007D01*
X138450836Y-98287454D01*
X138271118Y-98229059D01*
X138084486Y-98199500D01*
X138084481Y-98199500D01*
X137895519Y-98199500D01*
X137895514Y-98199500D01*
X137708881Y-98229059D01*
X137529163Y-98287454D01*
X137360800Y-98373240D01*
X137301461Y-98416353D01*
X137207927Y-98484310D01*
X137207925Y-98484312D01*
X137207924Y-98484312D01*
X137074312Y-98617924D01*
X137074312Y-98617925D01*
X137074310Y-98617927D01*
X137036840Y-98669500D01*
X136963240Y-98770800D01*
X136877454Y-98939163D01*
X136819059Y-99118881D01*
X136789500Y-99305513D01*
X135800500Y-99305513D01*
X135770940Y-99118881D01*
X135732150Y-98999500D01*
X135712547Y-98939168D01*
X135712545Y-98939165D01*
X135712545Y-98939163D01*
X135657768Y-98831658D01*
X135626760Y-98770801D01*
X135515690Y-98617927D01*
X135382073Y-98484310D01*
X135229199Y-98373240D01*
X135177714Y-98347007D01*
X135060836Y-98287454D01*
X134881118Y-98229059D01*
X134694486Y-98199500D01*
X134694481Y-98199500D01*
X134505519Y-98199500D01*
X134505514Y-98199500D01*
X134318881Y-98229059D01*
X134139163Y-98287454D01*
X133970800Y-98373240D01*
X133911461Y-98416353D01*
X133817927Y-98484310D01*
X133817925Y-98484312D01*
X133817924Y-98484312D01*
X133684312Y-98617924D01*
X133684312Y-98617925D01*
X133684310Y-98617927D01*
X133646840Y-98669500D01*
X133573240Y-98770800D01*
X133487454Y-98939163D01*
X133429059Y-99118881D01*
X133399500Y-99305513D01*
X130960500Y-99305513D01*
X130960500Y-96424438D01*
X130980185Y-96357399D01*
X131028204Y-96313954D01*
X131115405Y-96269524D01*
X131274646Y-96153828D01*
X131413828Y-96014646D01*
X131529524Y-95855405D01*
X131563679Y-95788370D01*
X131611652Y-95737575D01*
X131679473Y-95720779D01*
X131745608Y-95743316D01*
X131784648Y-95788370D01*
X131845370Y-95907542D01*
X131845373Y-95907547D01*
X131884728Y-95961716D01*
X132517037Y-95329408D01*
X132534075Y-95392993D01*
X132599901Y-95507007D01*
X132692993Y-95600099D01*
X132807007Y-95665925D01*
X132870590Y-95682962D01*
X132238282Y-96315269D01*
X132238282Y-96315270D01*
X132292449Y-96354624D01*
X132481782Y-96451095D01*
X132683870Y-96516757D01*
X132893754Y-96550000D01*
X133106246Y-96550000D01*
X133316127Y-96516757D01*
X133316130Y-96516757D01*
X133518217Y-96451095D01*
X133707554Y-96354622D01*
X133761716Y-96315270D01*
X133761717Y-96315270D01*
X133129408Y-95682962D01*
X133192993Y-95665925D01*
X133307007Y-95600099D01*
X133400099Y-95507007D01*
X133465925Y-95392993D01*
X133482962Y-95329408D01*
X134115270Y-95961717D01*
X134115270Y-95961716D01*
X134154622Y-95907554D01*
X134251095Y-95718217D01*
X134316757Y-95516130D01*
X134316757Y-95516127D01*
X134350000Y-95306246D01*
X134350000Y-95093753D01*
X134316757Y-94883872D01*
X134316757Y-94883869D01*
X134251095Y-94681782D01*
X134154624Y-94492449D01*
X134115270Y-94438282D01*
X134115269Y-94438282D01*
X133482962Y-95070590D01*
X133465925Y-95007007D01*
X133400099Y-94892993D01*
X133307007Y-94799901D01*
X133192993Y-94734075D01*
X133129409Y-94717037D01*
X133761716Y-94084728D01*
X133707550Y-94045375D01*
X133518217Y-93948904D01*
X133316129Y-93883242D01*
X133106246Y-93850000D01*
X132893754Y-93850000D01*
X132683872Y-93883242D01*
X132683869Y-93883242D01*
X132481782Y-93948904D01*
X132292439Y-94045380D01*
X132238282Y-94084727D01*
X132238282Y-94084728D01*
X132870591Y-94717037D01*
X132807007Y-94734075D01*
X132692993Y-94799901D01*
X132599901Y-94892993D01*
X132534075Y-95007007D01*
X132517037Y-95070591D01*
X131884728Y-94438282D01*
X131884727Y-94438282D01*
X131845380Y-94492440D01*
X131845378Y-94492443D01*
X131784648Y-94611630D01*
X131736673Y-94662426D01*
X131668852Y-94679220D01*
X131602717Y-94656682D01*
X131563679Y-94611628D01*
X131529525Y-94544596D01*
X131503188Y-94508347D01*
X131413828Y-94385354D01*
X131274646Y-94246172D01*
X131115405Y-94130476D01*
X130940029Y-94041117D01*
X130752826Y-93980290D01*
X130558422Y-93949500D01*
X130558417Y-93949500D01*
X130361583Y-93949500D01*
X130361578Y-93949500D01*
X130167173Y-93980290D01*
X129979970Y-94041117D01*
X129804594Y-94130476D01*
X129713741Y-94196485D01*
X129645354Y-94246172D01*
X129645352Y-94246174D01*
X129645351Y-94246174D01*
X129506173Y-94385352D01*
X129394817Y-94538620D01*
X129339486Y-94581285D01*
X129269873Y-94587264D01*
X129208078Y-94554658D01*
X129173721Y-94493819D01*
X129170499Y-94465734D01*
X129170499Y-94318482D01*
X129167813Y-94301524D01*
X129155646Y-94224696D01*
X129098050Y-94111658D01*
X129098046Y-94111654D01*
X129098045Y-94111652D01*
X129008347Y-94021954D01*
X129008344Y-94021952D01*
X129008342Y-94021950D01*
X128926580Y-93980290D01*
X128895301Y-93964352D01*
X128801524Y-93949500D01*
X127038482Y-93949500D01*
X126957519Y-93962323D01*
X126944696Y-93964354D01*
X126831658Y-94021950D01*
X126831657Y-94021951D01*
X126831652Y-94021954D01*
X126741954Y-94111652D01*
X126741951Y-94111657D01*
X126684352Y-94224698D01*
X126669500Y-94318475D01*
X126669500Y-96081517D01*
X126673417Y-96106246D01*
X126684354Y-96175304D01*
X126741950Y-96288342D01*
X126741952Y-96288344D01*
X126741953Y-96288346D01*
X126785214Y-96331606D01*
X126818700Y-96392929D01*
X126813716Y-96462620D01*
X126785215Y-96506969D01*
X124292686Y-98999500D01*
X124199502Y-99092683D01*
X124199500Y-99092686D01*
X124133608Y-99206812D01*
X124099500Y-99334108D01*
X124099500Y-117058481D01*
X124079815Y-117125520D01*
X124063181Y-117146162D01*
X124055888Y-117153454D01*
X124055885Y-117153458D01*
X123979228Y-117268182D01*
X123979221Y-117268195D01*
X123926421Y-117395667D01*
X123926418Y-117395677D01*
X123899500Y-117531004D01*
X123899500Y-117531007D01*
X123899500Y-117668993D01*
X123899500Y-117668995D01*
X123899499Y-117668995D01*
X122727546Y-117668995D01*
X122743317Y-117622718D01*
X122788370Y-117583679D01*
X122855405Y-117549524D01*
X123014646Y-117433828D01*
X123153828Y-117294646D01*
X123269524Y-117135405D01*
X123358884Y-116960025D01*
X123419709Y-116772826D01*
X123450500Y-116578422D01*
X123450500Y-116381577D01*
X123419709Y-116187173D01*
X123358882Y-115999970D01*
X123311743Y-115907455D01*
X123269524Y-115824595D01*
X123153828Y-115665354D01*
X123014646Y-115526172D01*
X122935025Y-115468324D01*
X122855403Y-115410474D01*
X122678787Y-115320485D01*
X122627990Y-115272511D01*
X122611195Y-115204690D01*
X122633732Y-115138555D01*
X122678787Y-115099515D01*
X122855403Y-115009525D01*
X122855402Y-115009525D01*
X122855405Y-115009524D01*
X123014646Y-114893828D01*
X123153828Y-114754646D01*
X123269524Y-114595405D01*
X123358884Y-114420025D01*
X123419709Y-114232826D01*
X123450500Y-114038422D01*
X123450500Y-113841577D01*
X123419709Y-113647173D01*
X123358882Y-113459970D01*
X123269523Y-113284594D01*
X123153828Y-113125354D01*
X123014646Y-112986172D01*
X122998328Y-112974316D01*
X122955664Y-112918987D01*
X122949686Y-112849373D01*
X122982293Y-112787579D01*
X123043132Y-112753222D01*
X123071216Y-112750000D01*
X123097828Y-112750000D01*
X123097844Y-112749999D01*
X123157372Y-112743598D01*
X123157379Y-112743596D01*
X123292086Y-112693354D01*
X123292093Y-112693350D01*
X123407187Y-112607190D01*
X123407190Y-112607187D01*
X123493350Y-112492093D01*
X123493354Y-112492086D01*
X123543596Y-112357379D01*
X123543598Y-112357372D01*
X123549999Y-112297844D01*
X123550000Y-112297827D01*
X123550000Y-111650000D01*
X122633012Y-111650000D01*
X122665925Y-111592993D01*
X122700000Y-111465826D01*
X122700000Y-111334174D01*
X122665925Y-111207007D01*
X122633012Y-111150000D01*
X123550000Y-111150000D01*
X123550000Y-110502172D01*
X123549999Y-110502155D01*
X123543598Y-110442627D01*
X123543596Y-110442620D01*
X123493354Y-110307913D01*
X123493350Y-110307906D01*
X123407190Y-110192812D01*
X123407187Y-110192809D01*
X123292093Y-110106649D01*
X123292086Y-110106645D01*
X123157379Y-110056403D01*
X123157372Y-110056401D01*
X123097844Y-110050000D01*
X122450000Y-110050000D01*
X122450000Y-110966988D01*
X122392993Y-110934075D01*
X122265826Y-110900000D01*
X122134174Y-110900000D01*
X122007007Y-110934075D01*
X121950000Y-110966988D01*
X121950000Y-110050000D01*
X121302155Y-110050000D01*
X121242627Y-110056401D01*
X121242620Y-110056403D01*
X121107913Y-110106645D01*
X121107906Y-110106649D01*
X120992812Y-110192809D01*
X120992809Y-110192812D01*
X120906649Y-110307906D01*
X120906645Y-110307913D01*
X120856403Y-110442620D01*
X120856401Y-110442627D01*
X120850000Y-110502155D01*
X118500500Y-110502155D01*
X118500500Y-104893753D01*
X121050000Y-104893753D01*
X121050000Y-105106246D01*
X121083242Y-105316127D01*
X121083242Y-105316130D01*
X121148904Y-105518217D01*
X121245375Y-105707550D01*
X121284728Y-105761716D01*
X121917037Y-105129408D01*
X121934075Y-105192993D01*
X121999901Y-105307007D01*
X122092993Y-105400099D01*
X122207007Y-105465925D01*
X122270590Y-105482962D01*
X121638282Y-106115269D01*
X121638282Y-106115270D01*
X121692449Y-106154624D01*
X121881782Y-106251095D01*
X122083870Y-106316757D01*
X122293754Y-106350000D01*
X122506246Y-106350000D01*
X122716127Y-106316757D01*
X122716130Y-106316757D01*
X122918217Y-106251095D01*
X123107554Y-106154622D01*
X123161716Y-106115270D01*
X123161717Y-106115270D01*
X122529408Y-105482962D01*
X122592993Y-105465925D01*
X122707007Y-105400099D01*
X122800099Y-105307007D01*
X122865925Y-105192993D01*
X122882962Y-105129409D01*
X123515270Y-105761717D01*
X123515270Y-105761716D01*
X123554622Y-105707554D01*
X123651095Y-105518217D01*
X123716757Y-105316130D01*
X123716757Y-105316127D01*
X123750000Y-105106246D01*
X123750000Y-104893753D01*
X123716757Y-104683872D01*
X123716757Y-104683869D01*
X123651095Y-104481782D01*
X123554624Y-104292449D01*
X123515270Y-104238282D01*
X123515269Y-104238282D01*
X122882962Y-104870590D01*
X122865925Y-104807007D01*
X122800099Y-104692993D01*
X122707007Y-104599901D01*
X122592993Y-104534075D01*
X122529409Y-104517037D01*
X123161716Y-103884728D01*
X123107547Y-103845373D01*
X123107542Y-103845370D01*
X122988370Y-103784648D01*
X122937574Y-103736674D01*
X122920779Y-103668853D01*
X122943317Y-103602718D01*
X122988370Y-103563679D01*
X123055405Y-103529524D01*
X123214646Y-103413828D01*
X123353828Y-103274646D01*
X123469524Y-103115405D01*
X123558884Y-102940025D01*
X123619709Y-102752826D01*
X123650500Y-102558422D01*
X123650500Y-102361577D01*
X123619709Y-102167173D01*
X123558882Y-101979970D01*
X123469523Y-101804594D01*
X123353828Y-101645354D01*
X123214646Y-101506172D01*
X123061377Y-101394815D01*
X123018714Y-101339487D01*
X123012735Y-101269873D01*
X123045341Y-101208078D01*
X123106180Y-101173721D01*
X123134264Y-101170499D01*
X123281518Y-101170499D01*
X123375304Y-101155646D01*
X123488342Y-101098050D01*
X123578050Y-101008342D01*
X123635646Y-100895304D01*
X123635646Y-100895302D01*
X123635647Y-100895301D01*
X123650499Y-100801524D01*
X123650500Y-100801519D01*
X123650499Y-99038482D01*
X123635646Y-98944696D01*
X123578050Y-98831658D01*
X123578046Y-98831654D01*
X123578045Y-98831652D01*
X123488347Y-98741954D01*
X123488344Y-98741952D01*
X123488342Y-98741950D01*
X123411517Y-98702805D01*
X123375301Y-98684352D01*
X123281524Y-98669500D01*
X121518482Y-98669500D01*
X121437519Y-98682323D01*
X121424696Y-98684354D01*
X121311658Y-98741950D01*
X121311657Y-98741951D01*
X121311652Y-98741954D01*
X121221954Y-98831652D01*
X121221951Y-98831657D01*
X121221950Y-98831658D01*
X121207182Y-98860641D01*
X121164352Y-98944698D01*
X121149500Y-99038475D01*
X121149500Y-100801517D01*
X121160292Y-100869657D01*
X121164354Y-100895304D01*
X121221950Y-101008342D01*
X121221952Y-101008344D01*
X121221954Y-101008347D01*
X121311652Y-101098045D01*
X121311654Y-101098046D01*
X121311658Y-101098050D01*
X121424694Y-101155645D01*
X121424698Y-101155647D01*
X121518475Y-101170499D01*
X121518481Y-101170500D01*
X121665735Y-101170499D01*
X121732772Y-101190183D01*
X121778527Y-101242987D01*
X121788471Y-101312145D01*
X121759446Y-101375701D01*
X121738619Y-101394816D01*
X121585360Y-101506167D01*
X121585351Y-101506174D01*
X121446174Y-101645351D01*
X121446174Y-101645352D01*
X121446172Y-101645354D01*
X121396485Y-101713741D01*
X121330476Y-101804594D01*
X121241117Y-101979970D01*
X121180290Y-102167173D01*
X121149500Y-102361577D01*
X121149500Y-102558422D01*
X121180290Y-102752826D01*
X121241117Y-102940029D01*
X121287529Y-103031117D01*
X121330476Y-103115405D01*
X121446172Y-103274646D01*
X121585354Y-103413828D01*
X121704784Y-103500600D01*
X121744596Y-103529525D01*
X121811628Y-103563679D01*
X121862425Y-103611653D01*
X121879220Y-103679474D01*
X121856683Y-103745609D01*
X121811630Y-103784648D01*
X121692443Y-103845378D01*
X121692440Y-103845380D01*
X121638282Y-103884727D01*
X121638282Y-103884728D01*
X122270591Y-104517037D01*
X122207007Y-104534075D01*
X122092993Y-104599901D01*
X121999901Y-104692993D01*
X121934075Y-104807007D01*
X121917037Y-104870591D01*
X121284728Y-104238282D01*
X121284727Y-104238282D01*
X121245380Y-104292439D01*
X121148904Y-104481782D01*
X121083242Y-104683869D01*
X121083242Y-104683872D01*
X121050000Y-104893753D01*
X118500500Y-104893753D01*
X118500500Y-85701577D01*
X121349500Y-85701577D01*
X121349500Y-85898422D01*
X121380290Y-86092826D01*
X121441117Y-86280029D01*
X121502246Y-86400000D01*
X121530476Y-86455405D01*
X121646172Y-86614646D01*
X121785354Y-86753828D01*
X121944595Y-86869524D01*
X122054312Y-86925427D01*
X122121213Y-86959515D01*
X122172009Y-87007489D01*
X122188804Y-87075310D01*
X122166267Y-87141445D01*
X122121213Y-87180485D01*
X121944594Y-87270476D01*
X121853741Y-87336485D01*
X121785354Y-87386172D01*
X121785352Y-87386174D01*
X121785351Y-87386174D01*
X121646174Y-87525351D01*
X121646174Y-87525352D01*
X121646172Y-87525354D01*
X121611587Y-87572956D01*
X121530476Y-87684594D01*
X121441117Y-87859970D01*
X121380290Y-88047173D01*
X121349500Y-88241577D01*
X121349500Y-88438422D01*
X121380290Y-88632826D01*
X121441117Y-88820029D01*
X121511523Y-88958207D01*
X121530476Y-88995405D01*
X121646172Y-89154646D01*
X121785354Y-89293828D01*
X121944595Y-89409524D01*
X122067992Y-89472397D01*
X122121213Y-89499515D01*
X122172009Y-89547489D01*
X122188804Y-89615310D01*
X122166267Y-89681445D01*
X122121213Y-89720485D01*
X121944594Y-89810476D01*
X121889540Y-89850476D01*
X121785354Y-89926172D01*
X121785352Y-89926174D01*
X121785351Y-89926174D01*
X121646174Y-90065351D01*
X121646174Y-90065352D01*
X121646172Y-90065354D01*
X121617112Y-90105352D01*
X121530476Y-90224594D01*
X121441117Y-90399970D01*
X121380290Y-90587173D01*
X121349500Y-90781577D01*
X121349500Y-90978422D01*
X121380290Y-91172826D01*
X121441117Y-91360029D01*
X121530476Y-91535405D01*
X121646172Y-91694646D01*
X121785354Y-91833828D01*
X121938621Y-91945184D01*
X121981285Y-92000512D01*
X121987264Y-92070125D01*
X121954658Y-92131920D01*
X121893819Y-92166278D01*
X121865735Y-92169500D01*
X121718482Y-92169500D01*
X121637519Y-92182323D01*
X121624696Y-92184354D01*
X121511658Y-92241950D01*
X121511657Y-92241951D01*
X121511652Y-92241954D01*
X121421954Y-92331652D01*
X121421951Y-92331657D01*
X121364352Y-92444698D01*
X121349500Y-92538475D01*
X121349500Y-94301517D01*
X121360292Y-94369657D01*
X121364354Y-94395304D01*
X121421950Y-94508342D01*
X121421952Y-94508344D01*
X121421954Y-94508347D01*
X121511652Y-94598045D01*
X121511654Y-94598046D01*
X121511658Y-94598050D01*
X121624694Y-94655645D01*
X121624698Y-94655647D01*
X121718475Y-94670499D01*
X121718481Y-94670500D01*
X123481518Y-94670499D01*
X123575304Y-94655646D01*
X123688342Y-94598050D01*
X123778050Y-94508342D01*
X123835646Y-94395304D01*
X123835646Y-94395302D01*
X123835647Y-94395301D01*
X123850499Y-94301524D01*
X123850500Y-94301519D01*
X123850499Y-92538482D01*
X123835646Y-92444696D01*
X123778050Y-92331658D01*
X123778046Y-92331654D01*
X123778045Y-92331652D01*
X123688347Y-92241954D01*
X123688344Y-92241952D01*
X123688342Y-92241950D01*
X123611517Y-92202805D01*
X123575301Y-92184352D01*
X123481524Y-92169500D01*
X123334266Y-92169500D01*
X123267227Y-92149815D01*
X123221472Y-92097011D01*
X123211528Y-92027853D01*
X123240553Y-91964297D01*
X123261375Y-91945186D01*
X123414646Y-91833828D01*
X123553828Y-91694646D01*
X123669524Y-91535405D01*
X123758884Y-91360025D01*
X123819709Y-91172826D01*
X123850500Y-90978422D01*
X123850500Y-90781577D01*
X123819709Y-90587173D01*
X123758882Y-90399970D01*
X123669523Y-90224594D01*
X123553828Y-90065354D01*
X123414646Y-89926172D01*
X123310460Y-89850476D01*
X123255403Y-89810474D01*
X123078787Y-89720485D01*
X123027990Y-89672511D01*
X123011195Y-89604690D01*
X123033732Y-89538555D01*
X123078787Y-89499515D01*
X123255403Y-89409525D01*
X123255402Y-89409525D01*
X123255405Y-89409524D01*
X123414646Y-89293828D01*
X123553828Y-89154646D01*
X123669524Y-88995405D01*
X123688478Y-88958204D01*
X123736450Y-88907410D01*
X123798962Y-88890500D01*
X129682472Y-88890500D01*
X129682474Y-88890500D01*
X129682475Y-88890500D01*
X129822485Y-88852984D01*
X129948015Y-88780510D01*
X131224271Y-87504252D01*
X131285594Y-87470768D01*
X131350270Y-87474003D01*
X131362726Y-87478050D01*
X131483172Y-87517185D01*
X131580592Y-87532614D01*
X131693512Y-87550500D01*
X131693517Y-87550500D01*
X131906488Y-87550500D01*
X132008458Y-87534348D01*
X132116828Y-87517185D01*
X132319372Y-87451375D01*
X132509127Y-87354690D01*
X132681421Y-87229511D01*
X132832011Y-87078921D01*
X132908188Y-86974071D01*
X132963518Y-86931406D01*
X133033131Y-86925427D01*
X133094926Y-86958033D01*
X133108824Y-86974072D01*
X133232092Y-87143736D01*
X133232097Y-87143742D01*
X133393757Y-87305402D01*
X133578723Y-87439788D01*
X133782429Y-87543582D01*
X133999871Y-87614234D01*
X134090000Y-87628509D01*
X134090000Y-86640747D01*
X134127708Y-86662518D01*
X134267591Y-86700000D01*
X134412409Y-86700000D01*
X134552292Y-86662518D01*
X134590000Y-86640747D01*
X134590000Y-87628508D01*
X134680128Y-87614234D01*
X134897570Y-87543582D01*
X135101276Y-87439788D01*
X135286242Y-87305402D01*
X135447902Y-87143742D01*
X135582288Y-86958776D01*
X135686082Y-86755070D01*
X135756734Y-86537628D01*
X135778532Y-86400000D01*
X134830748Y-86400000D01*
X134852518Y-86362292D01*
X134890000Y-86222409D01*
X134890000Y-86077591D01*
X134852518Y-85937708D01*
X134830748Y-85900000D01*
X135778532Y-85900000D01*
X135756734Y-85762371D01*
X135686082Y-85544929D01*
X135582288Y-85341223D01*
X135447902Y-85156257D01*
X135286242Y-84994597D01*
X135101276Y-84860211D01*
X134897568Y-84756417D01*
X134680124Y-84685765D01*
X134590000Y-84671490D01*
X134590000Y-85659252D01*
X134552292Y-85637482D01*
X134412409Y-85600000D01*
X134267591Y-85600000D01*
X134127708Y-85637482D01*
X134090000Y-85659252D01*
X134090000Y-84671490D01*
X134089999Y-84671490D01*
X133999875Y-84685765D01*
X133782431Y-84756417D01*
X133578723Y-84860211D01*
X133393757Y-84994597D01*
X133232097Y-85156257D01*
X133232097Y-85156258D01*
X133108824Y-85325928D01*
X133053494Y-85368593D01*
X132983880Y-85374572D01*
X132922086Y-85341966D01*
X132908188Y-85325928D01*
X132903863Y-85319975D01*
X132832011Y-85221079D01*
X132681421Y-85070489D01*
X132509127Y-84945310D01*
X132483627Y-84932317D01*
X132319372Y-84848624D01*
X132319369Y-84848623D01*
X132116829Y-84782815D01*
X131906488Y-84749500D01*
X131906483Y-84749500D01*
X131693517Y-84749500D01*
X131693513Y-84749500D01*
X131684038Y-84751000D01*
X131614745Y-84742040D01*
X131561297Y-84697040D01*
X131540662Y-84630287D01*
X131559392Y-84562974D01*
X131576958Y-84540855D01*
X131780997Y-84336816D01*
X131842318Y-84303334D01*
X131868676Y-84300500D01*
X140141324Y-84300500D01*
X140208363Y-84320185D01*
X140229005Y-84336819D01*
X140763181Y-84870994D01*
X140796666Y-84932317D01*
X140799500Y-84958675D01*
X140799500Y-100165891D01*
X140833608Y-100293187D01*
X140866554Y-100350250D01*
X140899500Y-100407314D01*
X140899502Y-100407316D01*
X146063181Y-105570995D01*
X146096666Y-105632318D01*
X146099500Y-105658676D01*
X146099500Y-105668993D01*
X146099500Y-105668995D01*
X146099499Y-105668995D01*
X146126418Y-105804322D01*
X146126421Y-105804332D01*
X146179221Y-105931804D01*
X146179228Y-105931817D01*
X146255885Y-106046541D01*
X146255888Y-106046545D01*
X146353454Y-106144111D01*
X146353458Y-106144114D01*
X146468182Y-106220771D01*
X146468195Y-106220778D01*
X146595667Y-106273578D01*
X146595672Y-106273580D01*
X146595676Y-106273580D01*
X146595677Y-106273581D01*
X146731004Y-106300500D01*
X146731007Y-106300500D01*
X146868994Y-106300500D01*
X146889261Y-106296468D01*
X146951309Y-106284126D01*
X147020899Y-106290353D01*
X147076077Y-106333215D01*
X147099322Y-106399105D01*
X147099500Y-106405743D01*
X147099500Y-118858481D01*
X147079815Y-118925520D01*
X147063181Y-118946162D01*
X147055888Y-118953454D01*
X147055885Y-118953458D01*
X146979228Y-119068182D01*
X146979221Y-119068195D01*
X146926421Y-119195667D01*
X146926418Y-119195677D01*
X146899500Y-119331004D01*
X146899500Y-119331007D01*
X146899500Y-119468993D01*
X146899500Y-119468995D01*
X146899499Y-119468995D01*
X146926418Y-119604322D01*
X146926421Y-119604332D01*
X146979221Y-119731804D01*
X146979228Y-119731817D01*
X147055885Y-119846541D01*
X147055888Y-119846545D01*
X147153454Y-119944111D01*
X147153458Y-119944114D01*
X147268182Y-120020771D01*
X147268195Y-120020778D01*
X147395667Y-120073578D01*
X147395672Y-120073580D01*
X147395676Y-120073580D01*
X147395677Y-120073581D01*
X147531004Y-120100500D01*
X147531007Y-120100500D01*
X147668995Y-120100500D01*
X147760041Y-120082389D01*
X147804328Y-120073580D01*
X147931811Y-120020775D01*
X148046542Y-119944114D01*
X148144114Y-119846542D01*
X148220775Y-119731811D01*
X148273580Y-119604328D01*
X148300500Y-119468993D01*
X148300500Y-119331007D01*
X148300500Y-119331004D01*
X148273581Y-119195677D01*
X148273580Y-119195676D01*
X148273580Y-119195672D01*
X148256217Y-119153753D01*
X149050000Y-119153753D01*
X149050000Y-119366246D01*
X149083242Y-119576127D01*
X149083242Y-119576130D01*
X149148904Y-119778217D01*
X149245375Y-119967550D01*
X149284728Y-120021716D01*
X149917037Y-119389408D01*
X149934075Y-119452993D01*
X149999901Y-119567007D01*
X150092993Y-119660099D01*
X150207007Y-119725925D01*
X150270590Y-119742962D01*
X149638282Y-120375269D01*
X149641470Y-120415771D01*
X149627106Y-120484148D01*
X149578055Y-120533905D01*
X149523253Y-120548107D01*
X149523333Y-120549119D01*
X149518488Y-120549500D01*
X149518482Y-120549501D01*
X149424696Y-120564354D01*
X149311658Y-120621950D01*
X149311657Y-120621951D01*
X149311652Y-120621954D01*
X149221954Y-120711652D01*
X149221951Y-120711657D01*
X149221950Y-120711658D01*
X149204782Y-120745352D01*
X149164352Y-120824698D01*
X149149500Y-120918475D01*
X149149500Y-122681517D01*
X149160292Y-122749657D01*
X149164354Y-122775304D01*
X149221950Y-122888342D01*
X149221952Y-122888344D01*
X149221954Y-122888347D01*
X149311652Y-122978045D01*
X149311654Y-122978046D01*
X149311658Y-122978050D01*
X149424694Y-123035645D01*
X149424698Y-123035647D01*
X149518475Y-123050499D01*
X149518481Y-123050500D01*
X151281518Y-123050499D01*
X151375304Y-123035646D01*
X151488342Y-122978050D01*
X151578050Y-122888342D01*
X151635646Y-122775304D01*
X151635646Y-122775302D01*
X151635647Y-122775301D01*
X151650499Y-122681524D01*
X151650500Y-122681519D01*
X151650499Y-120918482D01*
X151635646Y-120824696D01*
X151578050Y-120711658D01*
X151578046Y-120711654D01*
X151578045Y-120711652D01*
X151488347Y-120621954D01*
X151488344Y-120621952D01*
X151488342Y-120621950D01*
X151411517Y-120582805D01*
X151375301Y-120564352D01*
X151281522Y-120549499D01*
X151276669Y-120549118D01*
X151276763Y-120547918D01*
X151215109Y-120529815D01*
X151169354Y-120477011D01*
X151158530Y-120415772D01*
X151161717Y-120375270D01*
X150529408Y-119742962D01*
X150592993Y-119725925D01*
X150707007Y-119660099D01*
X150800099Y-119567007D01*
X150865925Y-119452993D01*
X150882962Y-119389409D01*
X151515270Y-120021717D01*
X151515270Y-120021716D01*
X151554622Y-119967554D01*
X151651095Y-119778217D01*
X151716757Y-119576130D01*
X151716757Y-119576127D01*
X151750000Y-119366246D01*
X151750000Y-119153753D01*
X151716757Y-118943872D01*
X151716757Y-118943869D01*
X151651095Y-118741782D01*
X151554624Y-118552449D01*
X151515270Y-118498282D01*
X151515269Y-118498282D01*
X150882962Y-119130590D01*
X150865925Y-119067007D01*
X150800099Y-118952993D01*
X150707007Y-118859901D01*
X150592993Y-118794075D01*
X150529409Y-118777037D01*
X151161716Y-118144728D01*
X151107547Y-118105373D01*
X151107542Y-118105370D01*
X150988370Y-118044648D01*
X150937574Y-117996674D01*
X150920779Y-117928853D01*
X150943317Y-117862718D01*
X150988370Y-117823679D01*
X151055405Y-117789524D01*
X151214646Y-117673828D01*
X151353828Y-117534646D01*
X151469524Y-117375405D01*
X151558884Y-117200025D01*
X151619709Y-117012826D01*
X151628072Y-116960025D01*
X151650500Y-116818422D01*
X151650500Y-116621577D01*
X151619709Y-116427173D01*
X151558882Y-116239970D01*
X151469523Y-116064594D01*
X151353828Y-115905354D01*
X151214646Y-115766172D01*
X151055405Y-115650476D01*
X150880029Y-115561117D01*
X150692826Y-115500290D01*
X150498422Y-115469500D01*
X150498417Y-115469500D01*
X150301583Y-115469500D01*
X150301578Y-115469500D01*
X150107173Y-115500290D01*
X149919970Y-115561117D01*
X149744594Y-115650476D01*
X149724117Y-115665354D01*
X149585354Y-115766172D01*
X149585352Y-115766174D01*
X149585351Y-115766174D01*
X149446174Y-115905351D01*
X149446174Y-115905352D01*
X149446172Y-115905354D01*
X149396485Y-115973741D01*
X149330476Y-116064594D01*
X149241117Y-116239970D01*
X149180290Y-116427173D01*
X149149500Y-116621577D01*
X149149500Y-116818422D01*
X149180290Y-117012826D01*
X149241117Y-117200029D01*
X149330476Y-117375405D01*
X149446172Y-117534646D01*
X149585354Y-117673828D01*
X149663356Y-117730500D01*
X149744596Y-117789525D01*
X149811628Y-117823679D01*
X149862425Y-117871653D01*
X149879220Y-117939474D01*
X149856683Y-118005609D01*
X149811630Y-118044648D01*
X149692443Y-118105378D01*
X149692440Y-118105380D01*
X149638282Y-118144727D01*
X149638282Y-118144728D01*
X150270591Y-118777037D01*
X150207007Y-118794075D01*
X150092993Y-118859901D01*
X149999901Y-118952993D01*
X149934075Y-119067007D01*
X149917037Y-119130591D01*
X149284728Y-118498282D01*
X149284727Y-118498282D01*
X149245380Y-118552439D01*
X149148904Y-118741782D01*
X149083242Y-118943869D01*
X149083242Y-118943872D01*
X149050000Y-119153753D01*
X148256217Y-119153753D01*
X148232860Y-119097364D01*
X148220778Y-119068195D01*
X148220771Y-119068182D01*
X148144114Y-118953458D01*
X148144111Y-118953454D01*
X148136819Y-118946162D01*
X148103334Y-118884839D01*
X148100500Y-118858481D01*
X148100500Y-106623753D01*
X149050000Y-106623753D01*
X149050000Y-106836246D01*
X149083242Y-107046127D01*
X149083242Y-107046130D01*
X149148904Y-107248217D01*
X149245375Y-107437550D01*
X149284728Y-107491716D01*
X149917037Y-106859408D01*
X149934075Y-106922993D01*
X149999901Y-107037007D01*
X150092993Y-107130099D01*
X150207007Y-107195925D01*
X150270590Y-107212962D01*
X149638282Y-107845269D01*
X149638282Y-107845270D01*
X149692449Y-107884624D01*
X149811629Y-107945350D01*
X149862425Y-107993325D01*
X149879220Y-108061146D01*
X149856682Y-108127281D01*
X149811630Y-108166319D01*
X149744597Y-108200474D01*
X149664974Y-108258324D01*
X149585354Y-108316172D01*
X149585352Y-108316174D01*
X149585351Y-108316174D01*
X149446174Y-108455351D01*
X149446174Y-108455352D01*
X149446172Y-108455354D01*
X149396485Y-108523741D01*
X149330476Y-108614594D01*
X149241117Y-108789970D01*
X149180290Y-108977173D01*
X149149500Y-109171577D01*
X149149500Y-109368422D01*
X149180290Y-109562826D01*
X149241117Y-109750029D01*
X149330476Y-109925405D01*
X149446172Y-110084646D01*
X149585354Y-110223828D01*
X149738621Y-110335184D01*
X149781285Y-110390512D01*
X149787264Y-110460125D01*
X149754658Y-110521920D01*
X149693819Y-110556278D01*
X149665735Y-110559500D01*
X149518482Y-110559500D01*
X149437519Y-110572323D01*
X149424696Y-110574354D01*
X149311658Y-110631950D01*
X149311657Y-110631951D01*
X149311652Y-110631954D01*
X149221954Y-110721652D01*
X149221951Y-110721657D01*
X149164352Y-110834698D01*
X149149500Y-110928475D01*
X149149500Y-112691517D01*
X149157749Y-112743598D01*
X149164354Y-112785304D01*
X149221950Y-112898342D01*
X149221952Y-112898344D01*
X149221954Y-112898347D01*
X149311652Y-112988045D01*
X149311654Y-112988046D01*
X149311658Y-112988050D01*
X149424694Y-113045645D01*
X149424698Y-113045647D01*
X149518475Y-113060499D01*
X149518481Y-113060500D01*
X151281518Y-113060499D01*
X151375304Y-113045646D01*
X151488342Y-112988050D01*
X151578050Y-112898342D01*
X151635646Y-112785304D01*
X151635646Y-112785302D01*
X151635647Y-112785301D01*
X151650499Y-112691524D01*
X151650500Y-112691519D01*
X151650499Y-110928482D01*
X151635646Y-110834696D01*
X151578050Y-110721658D01*
X151578046Y-110721654D01*
X151578045Y-110721652D01*
X151488347Y-110631954D01*
X151488344Y-110631952D01*
X151488342Y-110631950D01*
X151411517Y-110592805D01*
X151375301Y-110574352D01*
X151281524Y-110559500D01*
X151134266Y-110559500D01*
X151067227Y-110539815D01*
X151021472Y-110487011D01*
X151011528Y-110417853D01*
X151040553Y-110354297D01*
X151061375Y-110335186D01*
X151214646Y-110223828D01*
X151353828Y-110084646D01*
X151469524Y-109925405D01*
X151558884Y-109750025D01*
X151619709Y-109562826D01*
X151650500Y-109368422D01*
X151650500Y-109171577D01*
X151619709Y-108977173D01*
X151558882Y-108789970D01*
X151469523Y-108614594D01*
X151353828Y-108455354D01*
X151214646Y-108316172D01*
X151055405Y-108200476D01*
X150988370Y-108166320D01*
X150937574Y-108118345D01*
X150920779Y-108050524D01*
X150943316Y-107984389D01*
X150988370Y-107945350D01*
X151107554Y-107884622D01*
X151161716Y-107845270D01*
X151161717Y-107845270D01*
X150529408Y-107212962D01*
X150592993Y-107195925D01*
X150707007Y-107130099D01*
X150800099Y-107037007D01*
X150865925Y-106922993D01*
X150882962Y-106859409D01*
X151515270Y-107491717D01*
X151515270Y-107491716D01*
X151554622Y-107437554D01*
X151651095Y-107248217D01*
X151716757Y-107046130D01*
X151716757Y-107046127D01*
X151750000Y-106836246D01*
X151750000Y-106623753D01*
X151716757Y-106413872D01*
X151716757Y-106413869D01*
X151651095Y-106211782D01*
X151554624Y-106022449D01*
X151515270Y-105968282D01*
X151515269Y-105968282D01*
X150882962Y-106600590D01*
X150865925Y-106537007D01*
X150800099Y-106422993D01*
X150707007Y-106329901D01*
X150592993Y-106264075D01*
X150529409Y-106247037D01*
X151161716Y-105614728D01*
X151107547Y-105575373D01*
X151107542Y-105575370D01*
X150988370Y-105514648D01*
X150937574Y-105466674D01*
X150920779Y-105398853D01*
X150943317Y-105332718D01*
X150988370Y-105293679D01*
X151055405Y-105259524D01*
X151214646Y-105143828D01*
X151353828Y-105004646D01*
X151469524Y-104845405D01*
X151558884Y-104670025D01*
X151619709Y-104482826D01*
X151643855Y-104330375D01*
X151650500Y-104288422D01*
X151650500Y-104091577D01*
X151619709Y-103897173D01*
X151567559Y-103736674D01*
X151558884Y-103709975D01*
X151558882Y-103709972D01*
X151558882Y-103709970D01*
X151469523Y-103534594D01*
X151465840Y-103529525D01*
X151353828Y-103375354D01*
X151214646Y-103236172D01*
X151055405Y-103120476D01*
X151045453Y-103115405D01*
X150880029Y-103031117D01*
X150692826Y-102970290D01*
X150498422Y-102939500D01*
X150498417Y-102939500D01*
X150301583Y-102939500D01*
X150301578Y-102939500D01*
X150107173Y-102970290D01*
X149919970Y-103031117D01*
X149744594Y-103120476D01*
X149653741Y-103186485D01*
X149585354Y-103236172D01*
X149585352Y-103236174D01*
X149585351Y-103236174D01*
X149446174Y-103375351D01*
X149446174Y-103375352D01*
X149446172Y-103375354D01*
X149418221Y-103413825D01*
X149330476Y-103534594D01*
X149241117Y-103709970D01*
X149180290Y-103897173D01*
X149149500Y-104091577D01*
X149149500Y-104288422D01*
X149180290Y-104482826D01*
X149241117Y-104670029D01*
X149304414Y-104794256D01*
X149330476Y-104845405D01*
X149446172Y-105004646D01*
X149585354Y-105143828D01*
X149704784Y-105230600D01*
X149744596Y-105259525D01*
X149811628Y-105293679D01*
X149862425Y-105341653D01*
X149879220Y-105409474D01*
X149856683Y-105475609D01*
X149811630Y-105514648D01*
X149692443Y-105575378D01*
X149692440Y-105575380D01*
X149638282Y-105614727D01*
X149638282Y-105614728D01*
X150270591Y-106247037D01*
X150207007Y-106264075D01*
X150092993Y-106329901D01*
X149999901Y-106422993D01*
X149934075Y-106537007D01*
X149917037Y-106600591D01*
X149284728Y-105968282D01*
X149284727Y-105968282D01*
X149245380Y-106022439D01*
X149148904Y-106211782D01*
X149083242Y-106413869D01*
X149083242Y-106413872D01*
X149050000Y-106623753D01*
X148100500Y-106623753D01*
X148100500Y-100134110D01*
X148100500Y-100134108D01*
X148066392Y-100006814D01*
X148000500Y-99892686D01*
X147907314Y-99799500D01*
X147107314Y-98999500D01*
X147050250Y-98966554D01*
X146993187Y-98933608D01*
X146929539Y-98916554D01*
X146865892Y-98899500D01*
X146865891Y-98899500D01*
X146778323Y-98899500D01*
X146763720Y-98895212D01*
X146748515Y-98895864D01*
X146730876Y-98885568D01*
X146711284Y-98879815D01*
X146700386Y-98867770D01*
X146688173Y-98860641D01*
X146667838Y-98831795D01*
X146649056Y-98794933D01*
X146649055Y-98794931D01*
X146636761Y-98770803D01*
X146615801Y-98741954D01*
X146525690Y-98617927D01*
X146392073Y-98484310D01*
X146239199Y-98373240D01*
X146187714Y-98347007D01*
X146070836Y-98287454D01*
X145891118Y-98229059D01*
X145704486Y-98199500D01*
X145704481Y-98199500D01*
X145515519Y-98199500D01*
X145515514Y-98199500D01*
X145328881Y-98229059D01*
X145149163Y-98287454D01*
X144980800Y-98373240D01*
X144921461Y-98416353D01*
X144827927Y-98484310D01*
X144827925Y-98484312D01*
X144827924Y-98484312D01*
X144694312Y-98617924D01*
X144694312Y-98617925D01*
X144694310Y-98617927D01*
X144656840Y-98669500D01*
X144583240Y-98770800D01*
X144497454Y-98939163D01*
X144439059Y-99118881D01*
X144409500Y-99305513D01*
X144409500Y-99494486D01*
X144439059Y-99681118D01*
X144497454Y-99860836D01*
X144571833Y-100006812D01*
X144583240Y-100029199D01*
X144694310Y-100182073D01*
X144827927Y-100315690D01*
X144980801Y-100426760D01*
X145043440Y-100458676D01*
X145149163Y-100512545D01*
X145149165Y-100512545D01*
X145149168Y-100512547D01*
X145245497Y-100543846D01*
X145328881Y-100570940D01*
X145515514Y-100600500D01*
X145515519Y-100600500D01*
X145704486Y-100600500D01*
X145891118Y-100570940D01*
X146070832Y-100512547D01*
X146239199Y-100426760D01*
X146392073Y-100315690D01*
X146525690Y-100182073D01*
X146587034Y-100097639D01*
X146642363Y-100054976D01*
X146711976Y-100048997D01*
X146773771Y-100081603D01*
X146775032Y-100082846D01*
X147063181Y-100370995D01*
X147096666Y-100432318D01*
X147099500Y-100458676D01*
X147099500Y-104794256D01*
X147094197Y-104812314D01*
X147093889Y-104831136D01*
X147084556Y-104845146D01*
X147079815Y-104861295D01*
X147065591Y-104873619D01*
X147055156Y-104889287D01*
X147039730Y-104896028D01*
X147027011Y-104907050D01*
X147008382Y-104909728D01*
X146991133Y-104917267D01*
X146962841Y-104916276D01*
X146957853Y-104916994D01*
X146955844Y-104916688D01*
X146953553Y-104916320D01*
X146868993Y-104899500D01*
X146848786Y-104899500D01*
X146839020Y-104897932D01*
X146816050Y-104886983D01*
X146791637Y-104879815D01*
X146778064Y-104868877D01*
X146775948Y-104867869D01*
X146775085Y-104866477D01*
X146770995Y-104863181D01*
X141836819Y-99929005D01*
X141803334Y-99867682D01*
X141800500Y-99841324D01*
X141800500Y-95893753D01*
X149050000Y-95893753D01*
X149050000Y-96106246D01*
X149083242Y-96316127D01*
X149083242Y-96316130D01*
X149148904Y-96518217D01*
X149245375Y-96707550D01*
X149284728Y-96761716D01*
X149917037Y-96129408D01*
X149934075Y-96192993D01*
X149999901Y-96307007D01*
X150092993Y-96400099D01*
X150207007Y-96465925D01*
X150270590Y-96482962D01*
X149601195Y-97152356D01*
X149539872Y-97185841D01*
X149525167Y-97184924D01*
X149525444Y-97187497D01*
X149442626Y-97196401D01*
X149442619Y-97196403D01*
X149307913Y-97246645D01*
X149307906Y-97246649D01*
X149192812Y-97332809D01*
X149192809Y-97332812D01*
X149106649Y-97447906D01*
X149106645Y-97447913D01*
X149056403Y-97582620D01*
X149056401Y-97582627D01*
X149050000Y-97642155D01*
X149050000Y-98290000D01*
X149966988Y-98290000D01*
X149934075Y-98347007D01*
X149900000Y-98474174D01*
X149900000Y-98605826D01*
X149934075Y-98732993D01*
X149966988Y-98790000D01*
X149050000Y-98790000D01*
X149050000Y-99437844D01*
X149056401Y-99497372D01*
X149056403Y-99497379D01*
X149106645Y-99632086D01*
X149106649Y-99632093D01*
X149192809Y-99747187D01*
X149192812Y-99747190D01*
X149307906Y-99833350D01*
X149307913Y-99833354D01*
X149442620Y-99883596D01*
X149442627Y-99883598D01*
X149502155Y-99889999D01*
X149502172Y-99890000D01*
X150150000Y-99890000D01*
X150150000Y-98973012D01*
X150207007Y-99005925D01*
X150334174Y-99040000D01*
X150465826Y-99040000D01*
X150592993Y-99005925D01*
X150650000Y-98973012D01*
X150650000Y-99890000D01*
X151297828Y-99890000D01*
X151297844Y-99889999D01*
X151357372Y-99883598D01*
X151357379Y-99883596D01*
X151492086Y-99833354D01*
X151492093Y-99833350D01*
X151607187Y-99747190D01*
X151607190Y-99747187D01*
X151693350Y-99632093D01*
X151693354Y-99632086D01*
X151743596Y-99497379D01*
X151743598Y-99497372D01*
X151749999Y-99437844D01*
X151750000Y-99437827D01*
X151750000Y-98790000D01*
X150833012Y-98790000D01*
X150865925Y-98732993D01*
X150900000Y-98605826D01*
X150900000Y-98474174D01*
X150865925Y-98347007D01*
X150833012Y-98290000D01*
X151750000Y-98290000D01*
X151750000Y-97642172D01*
X151749999Y-97642155D01*
X151743598Y-97582627D01*
X151743596Y-97582620D01*
X151693354Y-97447913D01*
X151693350Y-97447906D01*
X151607190Y-97332812D01*
X151607187Y-97332809D01*
X151492093Y-97246649D01*
X151492086Y-97246645D01*
X151357380Y-97196403D01*
X151357373Y-97196401D01*
X151274555Y-97187497D01*
X151274884Y-97184431D01*
X151257875Y-97185330D01*
X151198803Y-97152356D01*
X150529408Y-96482962D01*
X150592993Y-96465925D01*
X150707007Y-96400099D01*
X150800099Y-96307007D01*
X150865925Y-96192993D01*
X150882962Y-96129409D01*
X151515270Y-96761717D01*
X151515270Y-96761716D01*
X151554622Y-96707554D01*
X151651095Y-96518217D01*
X151716757Y-96316130D01*
X151716757Y-96316127D01*
X151750000Y-96106246D01*
X151750000Y-95893753D01*
X151716757Y-95683872D01*
X151716757Y-95683869D01*
X151651095Y-95481782D01*
X151554624Y-95292449D01*
X151515270Y-95238282D01*
X151515269Y-95238282D01*
X150882962Y-95870590D01*
X150865925Y-95807007D01*
X150800099Y-95692993D01*
X150707007Y-95599901D01*
X150592993Y-95534075D01*
X150529409Y-95517037D01*
X151161716Y-94884728D01*
X151107547Y-94845373D01*
X151107542Y-94845370D01*
X150988370Y-94784648D01*
X150937574Y-94736674D01*
X150920779Y-94668853D01*
X150943317Y-94602718D01*
X150988370Y-94563679D01*
X151055405Y-94529524D01*
X151214646Y-94413828D01*
X151353828Y-94274646D01*
X151469524Y-94115405D01*
X151558884Y-93940025D01*
X151619709Y-93752826D01*
X151650500Y-93558422D01*
X151650500Y-93361577D01*
X151619709Y-93167173D01*
X151558882Y-92979970D01*
X151469523Y-92804594D01*
X151353828Y-92645354D01*
X151214646Y-92506172D01*
X151130032Y-92444696D01*
X151055403Y-92390474D01*
X150878787Y-92300485D01*
X150827990Y-92252511D01*
X150811195Y-92184690D01*
X150833732Y-92118555D01*
X150878787Y-92079515D01*
X151055403Y-91989525D01*
X151055402Y-91989525D01*
X151055405Y-91989524D01*
X151214646Y-91873828D01*
X151353828Y-91734646D01*
X151469524Y-91575405D01*
X151558884Y-91400025D01*
X151619709Y-91212826D01*
X151626044Y-91172826D01*
X151650500Y-91018422D01*
X151650500Y-90821577D01*
X151619709Y-90627173D01*
X151558882Y-90439970D01*
X151469523Y-90264594D01*
X151440461Y-90224594D01*
X151353828Y-90105354D01*
X151214646Y-89966172D01*
X151055405Y-89850476D01*
X150880029Y-89761117D01*
X150692826Y-89700290D01*
X150498422Y-89669500D01*
X150498417Y-89669500D01*
X150301583Y-89669500D01*
X150301578Y-89669500D01*
X150107173Y-89700290D01*
X149919970Y-89761117D01*
X149744594Y-89850476D01*
X149653741Y-89916485D01*
X149585354Y-89966172D01*
X149585352Y-89966174D01*
X149585351Y-89966174D01*
X149446174Y-90105351D01*
X149446174Y-90105352D01*
X149446172Y-90105354D01*
X149396485Y-90173741D01*
X149330476Y-90264594D01*
X149241117Y-90439970D01*
X149180290Y-90627173D01*
X149149500Y-90821577D01*
X149149500Y-91018422D01*
X149180290Y-91212826D01*
X149241117Y-91400029D01*
X149310095Y-91535405D01*
X149330476Y-91575405D01*
X149446172Y-91734646D01*
X149585354Y-91873828D01*
X149744595Y-91989524D01*
X149841470Y-92038884D01*
X149921213Y-92079515D01*
X149972009Y-92127489D01*
X149988804Y-92195310D01*
X149966267Y-92261445D01*
X149921213Y-92300485D01*
X149744594Y-92390476D01*
X149669965Y-92444698D01*
X149585354Y-92506172D01*
X149585352Y-92506174D01*
X149585351Y-92506174D01*
X149446174Y-92645351D01*
X149446174Y-92645352D01*
X149446172Y-92645354D01*
X149396485Y-92713741D01*
X149330476Y-92804594D01*
X149241117Y-92979970D01*
X149180290Y-93167173D01*
X149149500Y-93361577D01*
X149149500Y-93558422D01*
X149180290Y-93752826D01*
X149241117Y-93940029D01*
X149314845Y-94084727D01*
X149330476Y-94115405D01*
X149446172Y-94274646D01*
X149585354Y-94413828D01*
X149693554Y-94492440D01*
X149744596Y-94529525D01*
X149811628Y-94563679D01*
X149862425Y-94611653D01*
X149879220Y-94679474D01*
X149856683Y-94745609D01*
X149811630Y-94784648D01*
X149692443Y-94845378D01*
X149692440Y-94845380D01*
X149638282Y-94884727D01*
X149638282Y-94884728D01*
X150270591Y-95517037D01*
X150207007Y-95534075D01*
X150092993Y-95599901D01*
X149999901Y-95692993D01*
X149934075Y-95807007D01*
X149917037Y-95870591D01*
X149284728Y-95238282D01*
X149284727Y-95238282D01*
X149245380Y-95292439D01*
X149148904Y-95481782D01*
X149083242Y-95683869D01*
X149083242Y-95683872D01*
X149050000Y-95893753D01*
X141800500Y-95893753D01*
X141800500Y-84634110D01*
X141800500Y-84634108D01*
X141766392Y-84506814D01*
X141700500Y-84392686D01*
X141607314Y-84299500D01*
X141607313Y-84299499D01*
X141602983Y-84295169D01*
X141602972Y-84295159D01*
X140707316Y-83399502D01*
X140707315Y-83399501D01*
X140707314Y-83399500D01*
X140650250Y-83366554D01*
X140593187Y-83333608D01*
X140529539Y-83316554D01*
X140465892Y-83299500D01*
X131675893Y-83299500D01*
X131544108Y-83299500D01*
X131416812Y-83333608D01*
X131302686Y-83399500D01*
X131302683Y-83399502D01*
X129989003Y-84713181D01*
X129927680Y-84746666D01*
X129901322Y-84749500D01*
X128275982Y-84749500D01*
X128195019Y-84762323D01*
X128182196Y-84764354D01*
X128069158Y-84821950D01*
X128069157Y-84821951D01*
X128069152Y-84821954D01*
X127979454Y-84911652D01*
X127979451Y-84911657D01*
X127921852Y-85024698D01*
X127907000Y-85118475D01*
X127907000Y-87181517D01*
X127917792Y-87249657D01*
X127921854Y-87275304D01*
X127979450Y-87388342D01*
X127979452Y-87388344D01*
X127979454Y-87388347D01*
X128069152Y-87478045D01*
X128069154Y-87478046D01*
X128069158Y-87478050D01*
X128161997Y-87525354D01*
X128182198Y-87535647D01*
X128228793Y-87543027D01*
X128291928Y-87572956D01*
X128328859Y-87632268D01*
X128327861Y-87702130D01*
X128289251Y-87760363D01*
X128225287Y-87788477D01*
X128209395Y-87789500D01*
X123798962Y-87789500D01*
X123731923Y-87769815D01*
X123688478Y-87721795D01*
X123669524Y-87684595D01*
X123669521Y-87684591D01*
X123669521Y-87684590D01*
X123618403Y-87614234D01*
X123553828Y-87525354D01*
X123414646Y-87386172D01*
X123335025Y-87328324D01*
X123255403Y-87270474D01*
X123078787Y-87180485D01*
X123027990Y-87132511D01*
X123011195Y-87064690D01*
X123033732Y-86998555D01*
X123078787Y-86959515D01*
X123255403Y-86869525D01*
X123255402Y-86869525D01*
X123255405Y-86869524D01*
X123414646Y-86753828D01*
X123553828Y-86614646D01*
X123669524Y-86455405D01*
X123758884Y-86280025D01*
X123819709Y-86092826D01*
X123835042Y-85996017D01*
X123850500Y-85898422D01*
X123850500Y-85701577D01*
X123819709Y-85507173D01*
X123791487Y-85420317D01*
X123758884Y-85319975D01*
X123758882Y-85319972D01*
X123758882Y-85319970D01*
X123708493Y-85221076D01*
X123669524Y-85144595D01*
X123553828Y-84985354D01*
X123414646Y-84846172D01*
X123255405Y-84730476D01*
X123080029Y-84641117D01*
X122892826Y-84580290D01*
X122698422Y-84549500D01*
X122698417Y-84549500D01*
X122501583Y-84549500D01*
X122501578Y-84549500D01*
X122307173Y-84580290D01*
X122119970Y-84641117D01*
X121944594Y-84730476D01*
X121918409Y-84749501D01*
X121785354Y-84846172D01*
X121785352Y-84846174D01*
X121785351Y-84846174D01*
X121646174Y-84985351D01*
X121646174Y-84985352D01*
X121646172Y-84985354D01*
X121639457Y-84994597D01*
X121530476Y-85144594D01*
X121441117Y-85319970D01*
X121380290Y-85507173D01*
X121349500Y-85701577D01*
X118500500Y-85701577D01*
X118500500Y-82624500D01*
X118520185Y-82557461D01*
X118572989Y-82511706D01*
X118624500Y-82500500D01*
X153375500Y-82500500D01*
X153442539Y-82520185D01*
G37*
%TD.AperFunction*%
%TD*%
M02*
